<svg width="485" height="412" viewBox="0 0 485 412" fill="none" xmlns="http://www.w3.org/2000/svg">
<g clip-path="url(#clip0_57_2)">
<path d="M70.9459 401.669C70.9459 402.655 68.925 403.516 65.9066 403.99C64.3827 404.229 63.1824 405.43 62.9434 406.956C62.4701 409.977 61.6103 412 60.6246 412C59.6388 412 58.779 409.977 58.3057 406.956C58.0667 405.43 56.8663 404.229 55.3422 403.99C52.3215 403.516 50.2957 402.656 50.2957 401.669C50.2957 400.676 52.3197 399.815 55.3383 399.344C56.8643 399.106 58.0668 397.904 58.3058 396.377C58.7792 393.352 59.6388 391.33 60.6246 391.33C61.6103 391.33 62.47 393.352 62.9433 396.377C63.1823 397.904 64.3846 399.106 65.9104 399.344C68.9267 399.815 70.9459 400.677 70.9459 401.669Z" fill="white"/>
<path d="M484.983 296.368C484.77 297.331 482.614 297.734 479.568 297.545C478.03 297.449 476.6 298.362 476.038 299.798C474.926 302.642 473.651 304.43 472.69 304.217C471.729 304.004 471.326 301.846 471.515 298.797C471.611 297.257 470.699 295.826 469.264 295.264C466.42 294.15 464.629 292.873 464.842 291.911C465.056 290.943 467.215 290.54 470.261 290.732C471.8 290.83 473.232 289.917 473.794 288.479C474.908 285.631 476.182 283.844 477.143 284.057C478.105 284.269 478.508 286.428 478.318 289.48C478.222 291.021 479.135 292.453 480.572 293.015C483.413 294.125 485.197 295.401 484.983 296.368Z" fill="white"/>
<path d="M403.311 27.4642C403.311 28.5571 401.073 29.5102 397.73 30.035C396.042 30.2999 394.713 31.6306 394.448 33.3201C393.924 36.6664 392.971 38.9068 391.88 38.9068C390.788 38.9068 389.836 36.6664 389.311 33.3202C389.047 31.6306 387.717 30.2998 386.029 30.0351C382.683 29.5104 380.44 28.5571 380.44 27.4642C380.44 26.3652 382.682 25.4109 386.025 24.8898C387.715 24.6264 389.047 23.2948 389.311 21.6033C389.836 18.2534 390.788 16.0133 391.88 16.0133C392.971 16.0133 393.924 18.2534 394.448 21.6034C394.713 23.2948 396.044 24.6263 397.734 24.8899C401.075 25.411 403.311 26.3653 403.311 27.4642Z" fill="white"/>
<path d="M437.442 105.116C438.591 103.965 438.591 102.1 437.442 100.95C436.293 99.7992 434.429 99.7993 433.28 100.95C432.131 102.1 432.131 103.965 433.28 105.116C434.429 106.266 436.293 106.266 437.442 105.116Z" fill="white"/>
<path d="M432.857 345.255C433.332 343.813 432.548 342.258 431.107 341.783C429.666 341.307 428.112 342.092 427.638 343.534C427.163 344.977 427.946 346.532 429.388 347.007C430.829 347.482 432.382 346.698 432.857 345.255Z" fill="white"/>
<path d="M458.24 394.9C460.168 394.894 461.726 393.326 461.72 391.397C461.715 389.468 460.148 387.908 458.221 387.914C456.293 387.919 454.735 389.487 454.741 391.417C454.746 393.346 456.313 394.905 458.24 394.9Z" fill="white"/>
<path d="M112.2 78.489C112.269 76.2597 110.519 74.3965 108.292 74.3274C106.065 74.2582 104.204 76.0093 104.135 78.2385C104.066 80.4678 105.815 82.331 108.042 82.4001C110.269 82.4693 112.131 80.7182 112.2 78.489Z" fill="white"/>
<path d="M319.373 51.2155C320.999 51.2155 322.316 49.8966 322.316 48.2697C322.316 46.6427 320.999 45.3238 319.373 45.3238C317.748 45.3238 316.43 46.6427 316.43 48.2697C316.43 49.8966 317.748 51.2155 319.373 51.2155Z" fill="white"/>
<path d="M79.0668 7.78054C81.1316 6.94231 82.1265 4.58733 81.2891 2.52055C80.4517 0.453778 78.099 -0.542152 76.0342 0.296084C73.9694 1.13432 72.9744 3.4893 73.8118 5.55607C74.6493 7.62285 77.002 8.61878 79.0668 7.78054Z" fill="white"/>
<path d="M17.7452 359.863C18.1684 358.086 17.0717 356.301 15.2958 355.878C13.5198 355.454 11.737 356.552 11.3138 358.329C10.8906 360.107 11.9873 361.891 13.7632 362.315C15.5392 362.739 17.322 361.641 17.7452 359.863Z" fill="white"/>
<path d="M474.95 165.706C475.786 165.706 476.463 165.028 476.463 164.191C476.463 163.354 475.786 162.676 474.95 162.676C474.114 162.676 473.436 163.354 473.436 164.191C473.436 165.028 474.114 165.706 474.95 165.706Z" fill="white"/>
<path d="M365.625 407.56C366.224 406.769 366.069 405.643 365.279 405.043C364.489 404.444 363.363 404.599 362.765 405.39C362.166 406.181 362.321 407.307 363.111 407.907C363.901 408.506 365.026 408.351 365.625 407.56Z" fill="white"/>
<path d="M158.037 15.664C159.126 15.3095 159.723 14.1379 159.369 13.047C159.015 11.9561 157.844 11.3591 156.754 11.7136C155.664 12.0681 155.068 13.2397 155.422 14.3306C155.776 15.4215 156.947 16.0184 158.037 15.664Z" fill="white"/>
<path d="M35.0364 100.139C36.1409 99.833 36.7885 98.6889 36.483 97.5834C36.1775 96.4779 35.0346 95.8297 33.9301 96.1355C32.8257 96.4413 32.178 97.5853 32.4835 98.6908C32.789 99.7963 33.932 100.445 35.0364 100.139Z" fill="white"/>
<path d="M58.0617 171.695C58.036 172.635 57.2544 173.376 56.3159 173.35C55.3773 173.324 54.6372 172.542 54.6628 171.603C54.6884 170.663 55.47 169.922 56.4086 169.948C57.3471 169.974 58.0873 170.756 58.0617 171.695Z" fill="white"/>
<path d="M5.54311 193.275C7.05704 192.118 7.34702 189.951 6.19079 188.436C5.03456 186.92 2.86996 186.63 1.35602 187.788C-0.157908 188.945 -0.447879 191.112 0.708351 192.627C1.86458 194.142 4.02918 194.433 5.54311 193.275Z" fill="white"/>
<g filter="url(#filter0_d_57_2)">
<path d="M200.057 271.568C200.057 271.568 197.339 291.022 181.981 307.559C170.279 320.158 151.388 321.014 152.801 332.888H248.442L200.057 271.568Z" fill="white"/>
<path d="M248.441 332.888H152.804C151.389 321.012 170.277 320.156 181.98 307.558C189.234 299.741 193.676 291.276 196.333 284.518C198.303 279.516 199.297 275.452 199.741 273.284C199.973 272.179 200.059 271.566 200.059 271.566L213.939 289.16L217.844 294.109L246.35 330.24L248.441 332.888Z" fill="white"/>
<g opacity="0.35">
<path d="M248.441 332.888H180.969C186.133 330.176 190.764 325.716 196.478 322.07C205.426 316.36 206.241 301.464 204.772 296.409L248.441 332.888Z" fill="#371A45"/>
</g>
<path d="M248.442 335.201H152.801C151.631 335.201 150.645 334.325 150.506 333.162C149.495 324.66 156.783 320.843 164.5 316.803C169.738 314.06 175.675 310.952 180.289 305.984C194.934 290.216 197.743 271.434 197.77 271.246C197.9 270.33 198.563 269.578 199.455 269.337C200.349 269.098 201.298 269.41 201.871 270.135L250.255 331.455C250.804 332.15 250.907 333.099 250.521 333.896C250.135 334.694 249.328 335.201 248.442 335.201ZM155.136 330.576H243.673L201.289 276.86C199.458 283.892 194.773 297.182 183.673 309.133C178.519 314.682 172.209 317.986 166.642 320.901C159.975 324.392 155.81 326.766 155.136 330.576Z" fill="#371A45"/>
<path d="M423.923 223.936C421.994 227.885 417.482 230.412 410.551 230.452C401.748 230.498 401.557 231.701 401.615 231.967C401.627 232.002 401.638 232.019 401.638 232.019C401.638 232.019 403.146 234.372 405.185 238.246C405.191 238.257 405.196 238.275 405.202 238.286C405.289 238.442 405.375 238.604 405.462 238.772C405.468 238.789 405.474 238.801 405.485 238.818C411.608 250.619 421.884 275.226 411.469 291.67C398.71 311.802 340.214 321.7 319.864 327.037C303.171 331.419 272.233 333.35 246.35 330.24C240.666 329.558 235.231 328.632 230.24 327.436C213.991 323.545 206.118 303.285 202.456 288.183C200.885 281.696 200.094 276.163 199.741 273.284C199.58 271.931 199.516 271.162 199.516 271.162C199.516 271.162 242.543 234.505 302.83 230.631C312.707 229.995 323.041 230.244 333.727 231.672C352.072 234.129 363.763 238.893 363.763 238.893C366.617 230.654 357.051 217.605 362.949 205.822C369.88 191.969 412.018 188.378 422.952 210.996C425.332 215.922 425.621 220.478 423.923 223.936Z" fill="white"/>
<path d="M405.202 238.286C405.289 238.442 405.375 238.604 405.462 238.772C405.352 238.61 405.271 238.454 405.202 238.286Z" fill="white"/>
<g opacity="0.35">
<path d="M423.923 223.936C421.994 227.885 417.482 230.412 410.551 230.452C401.748 230.498 401.557 231.701 401.615 231.967C397.785 226.307 392.656 220.369 392.656 220.369C392.656 220.369 396.312 219.594 404.942 224.427C409.754 227.122 419.596 229.012 423.923 223.936Z" fill="#371A45"/>
</g>
<g opacity="0.35">
<path d="M411.469 291.67C375.194 325.508 281.557 338.543 230.242 327.44C216.389 324.119 208.628 308.912 204.371 295.141C203.025 290.787 200.187 287.078 196.393 284.557L196.333 284.517C198.493 278.305 200.05 274.95 199.516 271.162C199.516 271.162 242.543 234.505 302.83 230.631C287.691 280.096 248.065 309.478 204.651 289.311C209.226 300.863 216.533 311.865 228.062 314.623C255.794 321.266 297.337 319.567 317.686 314.224C324.346 312.478 324.918 264.316 331.821 274.423C365.259 323.4 405.907 289.796 410.528 281.974C414.49 275.267 414.057 266.282 413.687 259.396C416.616 270.208 417.425 282.274 411.469 291.67Z" fill="#371A45"/>
</g>
<path d="M209.416 306.201C211.711 309.962 214.133 313.602 217.047 316.705C218.486 318.265 220.045 319.68 221.69 320.929C223.34 322.175 225.126 323.181 226.975 323.97C228.849 324.763 230.708 325.202 232.922 325.615L236.12 326.254L239.352 326.761C243.654 327.473 248.011 327.927 252.369 328.364C269.819 329.902 287.568 329.74 304.948 327.482C309.278 326.881 313.608 326.193 317.794 325.152L319.374 324.778L321.009 324.361L324.269 323.569L330.769 322.062C339.421 320.091 348.038 318.119 356.567 315.86C365.091 313.599 373.544 311.099 381.736 308.017C385.826 306.47 389.85 304.773 393.705 302.814C397.551 300.854 401.251 298.629 404.456 295.956C405.291 295.316 405.987 294.568 406.742 293.867C407.107 293.508 407.415 293.112 407.756 292.738C408.097 292.363 408.43 291.984 408.697 291.571C408.98 291.166 409.278 290.774 409.555 290.361L410.305 289.041C410.573 288.612 410.782 288.149 410.985 287.684C411.187 287.218 411.42 286.767 411.601 286.292C413.058 282.487 413.687 278.325 413.598 274.114C413.563 269.902 412.856 265.655 411.839 261.481C410.793 257.307 409.398 253.193 407.744 249.176C406.099 245.157 404.201 241.223 402.111 237.411C401.59 236.456 401.048 235.516 400.499 234.587L400.084 233.896L399.876 233.557L399.772 233.391L399.724 233.314C399.811 233.438 399.593 233.175 399.415 232.657C399.293 232.252 399.294 231.959 399.32 231.616C399.354 231.349 399.436 231.054 399.538 230.826C399.623 230.649 399.726 230.475 399.842 230.315C399.977 230.126 400.029 230.092 400.131 229.983C400.223 229.892 400.319 229.805 400.418 229.724C400.501 229.659 400.562 229.621 400.636 229.571C400.769 229.485 400.95 229.368 401.051 229.324C401.531 229.085 401.906 228.972 402.27 228.864C403.653 228.505 404.812 228.406 405.999 228.3C407.167 228.218 408.32 228.167 409.458 228.153C410.656 228.152 411.579 228.075 412.609 228.036C413.586 227.888 414.591 227.803 415.505 227.518C417.365 227.037 419.06 226.214 420.292 225.013C421.531 223.822 422.302 222.266 422.561 220.508C422.827 218.751 422.584 216.83 422.02 214.957C421.855 214.491 421.738 214.015 421.541 213.555L420.945 212.173C420.736 211.718 420.471 211.291 420.239 210.847L419.882 210.186L419.461 209.564C418.399 207.862 417.004 206.386 415.504 205.034C412.465 202.346 408.705 200.443 404.737 199.142C400.742 197.887 396.528 197.2 392.286 197.077C391.226 197.013 390.164 197.065 389.103 197.06C388.044 197.125 386.981 197.14 385.927 197.263C383.813 197.438 381.718 197.786 379.664 198.248C377.605 198.698 375.6 199.331 373.69 200.115C371.784 200.901 369.964 201.855 368.4 203.035L367.288 203.959C366.967 204.298 366.619 204.621 366.311 204.964C366.05 205.328 365.724 205.665 365.502 206.04C365.294 206.437 365.039 206.74 364.852 207.214C364.019 208.96 363.551 210.858 363.375 212.831C363.029 216.801 363.929 220.976 364.952 225.258C365.457 227.414 366.01 229.613 366.353 231.979C366.676 234.32 366.861 236.947 365.944 239.654C365.537 240.856 364.233 241.499 363.033 241.092L362.939 241.058L362.889 241.038C361.335 240.428 359.597 239.846 357.916 239.313C356.219 238.772 354.499 238.287 352.775 237.816C349.321 236.892 345.827 236.096 342.309 235.418C338.792 234.743 335.249 234.167 331.69 233.775L326.35 233.19L320.988 232.843C313.834 232.5 306.657 232.616 299.512 233.205C292.37 233.83 285.271 234.94 278.259 236.46C264.243 239.527 250.55 244.224 237.625 250.523C224.689 256.829 212.408 264.246 200.013 271.747L199.988 271.762C199.622 271.984 199.144 271.867 198.923 271.5C198.741 271.198 198.788 270.821 199.015 270.573C201.537 267.816 204.313 265.402 207.2 263.11C208.636 261.955 210.125 260.874 211.613 259.789C213.126 258.744 214.634 257.686 216.188 256.701C222.362 252.692 228.888 249.248 235.568 246.168C248.926 240.017 262.867 235.047 277.277 231.94C284.475 230.379 291.77 229.239 299.117 228.597C306.467 227.99 313.856 227.869 321.225 228.224L326.748 228.582L332.25 229.184C335.917 229.589 339.558 230.181 343.181 230.876C346.803 231.574 350.403 232.394 353.973 233.349C355.757 233.836 357.536 234.338 359.304 234.901C361.088 235.469 362.802 236.035 364.633 236.755L361.578 238.138C362.117 236.611 362.075 234.658 361.779 232.635C361.487 230.605 360.965 228.488 360.456 226.325C359.44 222.006 358.359 217.366 358.771 212.436C358.984 209.99 359.59 207.511 360.67 205.246C360.895 204.685 361.305 204.085 361.633 203.512C361.985 202.938 362.423 202.457 362.822 201.931C363.252 201.448 363.714 201.009 364.164 200.551C364.638 200.138 365.126 199.747 365.61 199.348C367.594 197.853 369.741 196.744 371.929 195.839C374.12 194.94 376.364 194.237 378.637 193.738C380.907 193.227 383.2 192.849 385.506 192.657C386.657 192.525 387.814 192.504 388.968 192.437C390.124 192.439 391.28 192.387 392.436 192.454C397.06 192.592 401.681 193.332 406.151 194.738C410.595 196.194 414.924 198.357 418.553 201.558C420.343 203.165 422.021 204.956 423.321 207.021C424.648 209.069 425.745 211.235 426.442 213.615C427.15 215.977 427.523 218.559 427.13 221.201C426.761 223.829 425.478 226.464 423.504 228.339C421.542 230.239 419.09 231.364 416.68 231.992C415.466 232.354 414.25 232.471 413.035 232.642C411.85 232.7 410.56 232.779 409.54 232.778C408.461 232.791 407.397 232.839 406.353 232.912C405.333 232.995 404.276 233.118 403.511 233.32C403.343 233.368 403.188 233.426 403.171 233.434C403.143 233.442 403.216 233.416 403.229 233.399L403.274 233.36C403.322 233.326 403.368 233.287 403.409 233.244C403.465 233.186 403.454 233.188 403.558 233.064C403.637 232.962 403.703 232.847 403.75 232.728C403.829 232.565 403.897 232.338 403.911 232.137C403.942 231.862 403.929 231.642 403.834 231.303C403.669 230.854 403.5 230.645 403.621 230.828L403.684 230.928L403.8 231.115L404.027 231.485L404.47 232.221C405.05 233.202 405.616 234.185 406.158 235.179C408.335 239.149 410.301 243.224 412.019 247.419C413.743 251.61 415.211 255.926 416.323 260.364C417.405 264.807 418.176 269.377 418.219 274.052C418.314 278.711 417.629 283.491 415.901 287.985C415.687 288.545 415.416 289.086 415.174 289.637C414.931 290.188 414.68 290.735 414.364 291.252L413.466 292.825C413.128 293.334 412.759 293.831 412.404 294.333C412.06 294.85 411.663 295.305 411.26 295.754C410.856 296.202 410.473 296.679 410.049 297.099C409.184 297.912 408.353 298.783 407.427 299.499C403.809 302.511 399.845 304.871 395.796 306.939C391.74 308.999 387.575 310.753 383.369 312.343C374.951 315.51 366.367 318.045 357.746 320.332C349.124 322.615 340.443 324.601 331.798 326.571L325.336 328.069L322.131 328.848L320.543 329.253L318.887 329.646C314.461 330.745 310.015 331.448 305.563 332.067C296.656 333.226 287.721 333.852 278.775 334.072C269.831 334.294 260.866 334.13 251.925 333.308C247.454 332.902 242.989 332.36 238.55 331.561L235.225 330.948L231.916 330.198C229.779 329.766 227.322 329.07 225.156 328.018C220.737 325.963 217.165 322.608 214.385 318.925C211.588 315.217 209.55 311.094 208.022 306.858C207.877 306.456 208.085 306.012 208.487 305.867C208.839 305.74 209.222 305.883 209.409 306.191L209.416 306.201Z" fill="#371A45"/>
<path d="M221.364 361.673L302.554 336.617C306.311 335.669 308.952 332.299 308.978 328.421L171.11 327.389L171.111 362.94L207.462 363.326C212.147 363.376 216.82 362.82 221.364 361.673Z" fill="#333333"/>
<g opacity="0.35">
<path d="M308.637 330.746C307.807 333.593 305.534 335.868 302.556 336.616L221.362 361.674C216.823 362.819 212.149 363.376 207.459 363.324L171.109 362.937L173.402 357.975L209.752 358.594C214.437 358.677 219.111 358.151 223.666 357.031L305.019 332.649C306.4 332.314 307.632 331.648 308.637 330.746Z" fill="#371A45"/>
</g>
<path d="M208.04 365.325C207.84 365.325 207.64 365.324 207.441 365.322L169.117 364.915L169.116 325.378L310.986 326.439L310.973 328.434C310.94 333.202 307.704 337.35 303.094 338.54L221.852 363.609C217.337 364.748 212.694 365.325 208.04 365.325ZM173.106 360.965L207.483 361.33C211.989 361.384 216.467 360.847 220.827 359.75L302.066 334.682C304.272 334.125 305.976 332.477 306.659 330.399L173.104 329.4L173.106 360.965Z" fill="#371A45"/>
<path d="M219.084 353.193L308.544 328.52C308.604 328.507 308.594 328.419 308.533 328.419L171.11 326.698V354.581H206.868C210.979 354.581 215.077 354.116 219.084 353.193Z" fill="#333333"/>
<path d="M202.462 347.285L259.791 334.828C260.718 334.659 260.595 333.293 259.653 333.293L190.482 332.777V349.046L202.462 347.285Z" fill="#AFB2B1"/>
<path d="M188.488 351.356V330.766L259.667 331.297C261.094 331.297 262.279 332.381 262.409 333.818C262.538 335.255 261.567 336.533 260.148 336.792L202.752 349.26L188.488 351.356ZM192.476 334.788V346.735L202.106 345.32L248.647 335.207L192.476 334.788ZM259.368 332.878C259.347 332.881 259.326 332.886 259.304 332.891L259.368 332.878Z" fill="#371A45"/>
<path d="M206.868 356.578H169.116V324.677L310.324 326.445L310.566 328.248C310.676 329.257 310.033 330.189 309.06 330.448L219.531 355.138C215.384 356.093 211.124 356.578 206.868 356.578ZM173.104 352.585H206.868C210.808 352.585 214.754 352.139 218.596 351.257L294.791 330.243L173.104 328.719V352.585ZM308.496 330.414C308.504 330.414 308.512 330.415 308.52 330.415L308.496 330.414Z" fill="#371A45"/>
<path d="M364.748 236.805C366.338 237.449 367.716 238.165 369.113 238.977C370.502 239.771 371.834 240.655 373.137 241.575C375.741 243.422 378.139 245.55 380.394 247.802C382.663 250.041 384.706 252.512 386.535 255.107L387.86 257.085C388.27 257.765 388.66 258.458 389.042 259.151L389.617 260.184L390.123 261.259C390.465 261.97 390.78 262.692 391.096 263.407C391.17 263.575 391.094 263.771 390.927 263.845C390.787 263.907 390.628 263.864 390.536 263.751L390.522 263.734C388.565 261.319 386.632 258.974 384.426 256.878C382.27 254.751 380.014 252.751 377.628 250.919C375.26 249.068 372.788 247.369 370.299 245.711C369.662 245.318 369.044 244.898 368.418 244.49L366.524 243.295L362.774 240.987L362.669 240.923C361.581 240.253 361.241 238.828 361.91 237.738C362.511 236.761 363.72 236.388 364.748 236.805Z" fill="#371A45"/>
<path d="M392.032 219.702C393.409 220.317 394.592 221.139 395.72 222.015C396.857 222.885 397.857 223.884 398.855 224.894C399.841 225.916 400.784 226.983 401.666 228.117C402.529 229.265 403.356 230.462 404.013 231.798C404.5 232.789 404.093 233.988 403.103 234.476C402.2 234.921 401.124 234.621 400.572 233.813L400.556 233.789C399.092 231.651 397.609 229.392 396.11 227.101C395.371 225.946 394.584 224.819 393.905 223.589C393.214 222.368 392.551 221.116 392.032 219.702Z" fill="#371A45"/>
<path d="M286.238 194.717C295.495 186.568 338.821 183.321 358.87 195.969C377.285 207.587 382.015 245.501 370.827 243.031C345.687 237.48 325.777 234.978 288.648 241.461C264.693 244.794 276.981 202.865 286.238 194.717Z" fill="white"/>
<g opacity="0.35">
<path d="M370.828 243.039C345.684 237.488 325.779 234.985 288.649 241.466C275.838 243.253 273.394 232.082 275.306 220.062C276.681 226.116 280.638 230.065 288.649 228.949C299.735 227.012 315.358 202.595 315.358 202.595C315.358 202.595 316.022 222.693 323.873 226.675C333.727 231.672 357.236 227.515 370.828 230.516C373.548 231.117 375.322 229.33 376.194 226.121C377.892 236.141 376.188 244.224 370.828 243.039Z" fill="#371A45"/>
</g>
<path d="M371.819 245.465C371.336 245.465 370.838 245.41 370.33 245.298C343.352 239.341 324.308 237.589 289.045 243.747C289.019 243.752 288.992 243.756 288.966 243.76C280.045 245 276.031 240.578 274.233 236.649C268.771 224.721 277.117 199.673 284.712 192.988C295.151 183.798 339.578 181.073 360.102 194.021C375.258 203.582 382.256 230.203 377.891 240.839C376.67 243.814 374.461 245.465 371.819 245.465ZM327.639 235.314C342.762 235.314 355.949 237.386 371.325 240.781C371.872 240.902 372.788 241.104 373.617 239.082C376.865 231.166 371.393 206.611 357.638 197.934C338.207 185.675 295.946 189.259 287.764 196.461C281.906 201.618 273.653 224.281 278.433 234.722C280.118 238.403 283.346 239.862 288.291 239.184C303.69 236.496 316.217 235.314 327.639 235.314Z" fill="#371A45"/>
<path d="M344.04 206.503C339.419 212.559 339.895 231.437 344.108 232.693C348.321 233.949 363.204 235.21 366.465 232.557C369.727 229.904 371.174 219.686 368.044 214.329C364.884 208.921 347.438 202.05 344.04 206.503Z" fill="white"/>
<g opacity="0.35">
<path d="M369.528 225.422C369.054 228.585 367.945 231.354 366.467 232.557C363.203 235.21 348.324 233.95 344.107 232.695C341.045 231.782 339.96 221.56 341.363 213.714C341.964 218.49 343.581 222.398 345.684 222.236C348.999 221.982 350.721 214.997 350.721 214.997C350.721 214.997 351.558 223.664 354.862 226.931C358.986 231.013 366.79 227.81 368.875 226.116C369.101 225.931 369.32 225.699 369.528 225.422Z" fill="#371A45"/>
</g>
<path d="M357.393 235.705C351.908 235.705 345.96 234.911 343.653 234.224C342.218 233.796 341.104 232.39 340.341 230.044C338.429 224.161 338.612 210.986 342.772 205.534C343.942 204.001 346.071 203.32 349.088 203.504C355.708 203.912 366.609 208.71 369.421 213.523C372.995 219.639 371.335 230.654 367.472 233.796C365.728 235.214 361.703 235.705 357.393 235.705ZM348.172 206.669C346.748 206.669 345.701 206.957 345.308 207.472C342.135 211.63 341.519 223.346 343.375 229.056C343.89 230.64 344.419 231.12 344.563 231.162C348.921 232.462 362.972 233.342 365.46 231.318C367.972 229.274 369.498 219.98 366.667 215.135C364.627 211.644 354.992 207.067 348.892 206.692C348.643 206.676 348.402 206.669 348.172 206.669Z" fill="#371A45"/>
<path d="M351.346 212.742C351.207 216.638 351.112 220.521 351.394 224.264C351.546 226.121 351.815 227.972 352.31 229.559C352.561 230.345 352.887 231.053 353.26 231.541C353.648 232.026 353.995 232.288 354.564 232.454L354.857 232.54C355.695 232.785 356.176 233.664 355.931 234.503C355.709 235.264 354.965 235.73 354.204 235.627C353.863 235.582 353.514 235.549 353.173 235.462C352.84 235.34 352.482 235.247 352.175 235.064C351.547 234.72 350.979 234.263 350.574 233.747C349.721 232.723 349.285 231.6 348.988 230.531C348.406 228.377 348.422 226.307 348.518 224.289C348.635 222.27 348.931 220.3 349.325 218.36C349.734 216.422 350.242 214.516 350.9 212.651C350.942 212.531 351.073 212.468 351.193 212.51C351.29 212.545 351.35 212.637 351.347 212.735L351.346 212.742Z" fill="#371A45"/>
<path d="M319.29 194.865C318.38 198.767 317.305 202.675 316.805 206.411C316.731 206.879 316.707 207.332 316.661 207.789L316.53 209.303L316.276 212.335L315.834 218.36C315.708 220.356 315.634 222.343 315.63 224.286C315.63 226.226 315.741 228.14 316.05 229.884C316.375 231.62 316.956 233.144 317.834 234.016C318.68 234.903 320.054 235.327 321.766 235.414L321.85 235.418C323.124 235.483 324.105 236.57 324.04 237.845C323.978 239.067 322.971 240.019 321.766 240.039C320.579 240.056 319.321 239.98 318.042 239.596C316.768 239.226 315.476 238.534 314.448 237.568C313.413 236.608 312.664 235.442 312.147 234.291C311.634 233.129 311.32 231.973 311.089 230.842C310.642 228.581 310.573 226.408 310.567 224.28C310.562 222.149 310.717 220.068 310.878 218.002C311.041 215.937 311.269 213.893 311.511 211.86L311.88 208.815L312.071 207.292C312.165 206.741 312.242 206.18 312.365 205.649C312.8 203.494 313.492 201.481 314.296 199.535C315.113 197.59 316.029 195.73 317.175 193.933C317.522 193.388 318.245 193.228 318.789 193.576C319.217 193.849 319.408 194.356 319.299 194.825L319.29 194.865Z" fill="#371A45"/>
<path d="M377.701 310.882C370.025 318.728 360.817 315.525 360.817 315.525C360.817 315.525 364.433 304.089 364.711 289.958C364.786 286.148 364.618 282.135 364.07 278.1C360.667 253.105 341.34 238.656 341.34 238.656C341.34 238.656 351.703 228.307 365.127 239.732C375.102 248.225 381.479 270.317 382.299 288.01C382.785 298.313 381.375 307.124 377.701 310.882Z" fill="white"/>
<g opacity="0.35">
<path d="M377.701 310.882C370.025 318.728 360.818 315.525 360.818 315.525C360.818 315.525 364.433 304.089 364.711 289.958C366.38 293.971 368.598 297.983 370.522 297.214C373.242 296.122 372.711 286.674 372.953 283.76C373.028 282.847 375.963 287.79 376.708 295.757C377.164 300.591 380.387 293.034 382.299 288.01C382.785 298.313 381.375 307.124 377.701 310.882Z" fill="#371A45"/>
</g>
<path d="M365.458 318.494C362.388 318.494 360.253 317.779 360.061 317.712L357.939 316.975L358.615 314.83C358.672 314.65 364.258 296.627 361.779 278.41C358.557 254.724 340.138 240.645 339.953 240.506L337.819 238.904L339.706 237.017C339.824 236.899 351.748 225.311 366.624 237.973C377.356 247.107 383.798 270.046 384.616 287.984C384.927 294.812 384.657 307.075 379.352 312.498C374.577 317.379 369.29 318.494 365.458 318.494ZM363.715 313.776C366.506 314.098 371.553 313.858 376.051 309.261C378.988 306.259 380.464 298.384 380 288.195C379.246 271.67 373.253 249.687 363.63 241.496C355.244 234.36 348.352 236.748 345.052 238.742C350.469 243.561 363.547 257.125 366.358 277.786C368.455 293.202 365.22 308.052 363.715 313.776Z" fill="#371A45"/>
<g opacity="0.2">
<path d="M38.951 238.286C38.951 238.286 155.407 132.591 155.989 132.672C82.82 223.612 201.672 281.099 201.672 281.099L210.619 356.414L38.951 238.286Z" fill="#FCE85B"/>
</g>
<path d="M143.128 240.108C150.845 252.409 161.717 262.834 175.124 270.092C177.859 271.57 180.689 272.918 183.621 274.121C185.045 274.711 186.504 275.261 187.984 275.789C192.452 277.355 196.963 278.539 201.488 279.357C205.386 280.072 209.297 280.508 213.184 280.692C217.879 280.915 222.55 280.753 227.155 280.239C228.834 280.046 230.503 279.809 232.161 279.53C262.511 274.35 289.325 253.582 300.529 222.884C317.043 177.665 293.422 128.039 247.784 112.035C238.992 108.959 230.017 107.339 221.148 107.084C220.112 107.044 219.071 107.034 218.03 107.046C215.248 107.058 212.48 107.201 209.736 107.473C203.388 108.105 197.157 109.422 191.157 111.364C185.156 113.3 179.372 115.87 173.926 119.016C172.193 120.015 170.494 121.07 168.828 122.189C166.333 123.866 163.919 125.662 161.596 127.598C150.001 137.204 140.737 149.875 135.239 164.94C125.738 190.952 129.521 218.417 143.128 240.108Z" fill="white"/>
<path d="M217.3 281.044C215.919 281.044 214.542 281.012 213.172 280.947C209.216 280.76 205.269 280.31 201.442 279.608C196.875 278.782 192.318 277.578 187.9 276.03C186.272 275.449 184.841 274.902 183.523 274.357C180.644 273.176 177.777 271.816 175.003 270.316C161.903 263.225 150.806 252.826 142.913 240.243C128.674 217.546 125.79 190.067 135 164.853C140.322 150.268 149.462 137.318 161.433 127.402C163.697 125.516 166.137 123.691 168.686 121.977C170.323 120.878 172.043 119.807 173.798 118.795C179.261 115.64 185.075 113.058 191.078 111.121C197.14 109.159 203.409 107.846 209.711 107.219C212.452 106.947 215.251 106.803 218.029 106.791C219.122 106.778 220.174 106.791 221.158 106.829C230.209 107.09 239.196 108.76 247.868 111.794C270.095 119.588 287.827 135.507 297.799 156.617C307.692 177.56 308.747 201.125 300.769 222.972C289.939 252.643 263.667 274.411 232.204 279.781C230.543 280.061 228.854 280.301 227.184 280.492C223.897 280.86 220.587 281.044 217.3 281.044ZM143.344 239.972C151.191 252.48 162.223 262.818 175.245 269.867C178.004 271.358 180.854 272.71 183.717 273.885C185.028 274.427 186.451 274.972 188.07 275.549C192.461 277.088 196.992 278.285 201.533 279.106C205.339 279.804 209.263 280.251 213.196 280.437C217.8 280.655 222.486 280.504 227.126 279.986C228.787 279.795 230.467 279.557 232.119 279.278C263.401 273.939 289.523 252.296 300.289 222.796C308.221 201.079 307.173 177.654 297.338 156.835C287.425 135.849 269.796 120.025 247.7 112.276C239.077 109.26 230.142 107.598 221.141 107.339C220.164 107.301 219.119 107.29 218.033 107.3C215.269 107.313 212.486 107.456 209.761 107.727C203.495 108.35 197.262 109.656 191.235 111.607C185.265 113.533 179.485 116.1 174.053 119.237C172.308 120.243 170.597 121.308 168.97 122.4C166.436 124.105 164.01 125.919 161.759 127.795C149.857 137.654 140.77 150.528 135.479 165.028C126.323 190.093 129.19 217.409 143.344 239.972Z" fill="#371A45"/>
<g opacity="0.35">
<path d="M300.528 222.882C289.328 253.583 262.509 274.353 232.159 279.528C230.501 279.81 228.833 280.046 227.156 280.238C222.55 280.754 217.88 280.912 213.186 280.692C209.298 280.506 205.386 280.072 201.49 279.358C196.963 278.541 192.454 277.357 187.983 275.791C186.506 275.259 185.047 274.711 183.62 274.125C180.687 272.92 177.86 271.567 175.124 270.09C161.717 262.833 150.843 252.411 143.127 240.105C138.886 233.349 135.598 226.026 133.37 218.364C141.006 229.935 151.49 239.738 164.281 246.663C167.014 248.146 169.844 249.492 172.776 250.697C174.199 251.286 175.657 251.833 177.139 252.364C181.611 253.929 186.119 255.114 190.642 255.933C194.542 256.644 198.449 257.081 202.338 257.267C207.032 257.487 211.707 257.327 216.308 256.813C217.99 256.619 219.657 256.382 221.316 256.1C251.665 250.925 278.479 230.158 289.685 199.454C296.227 181.544 296.465 162.945 291.541 146.02C306.04 167.965 310.278 196.192 300.528 222.882Z" fill="#371A45"/>
</g>
<path d="M217.298 282.754C215.891 282.754 214.487 282.721 213.091 282.655C209.06 282.464 205.036 282.005 201.134 281.29C196.482 280.449 191.839 279.222 187.335 277.644C185.672 277.05 184.214 276.493 182.871 275.937C179.941 274.735 177.019 273.349 174.191 271.821C160.832 264.589 149.516 253.984 141.466 241.153C126.944 218.004 124.002 189.98 133.395 164.266C138.821 149.397 148.14 136.194 160.344 126.085C162.649 124.165 165.136 122.304 167.734 120.558C169.404 119.436 171.157 118.345 172.945 117.313C178.512 114.098 184.436 111.468 190.554 109.494C196.73 107.495 203.118 106.157 209.541 105.518C212.336 105.24 215.189 105.093 218.021 105.081C219.129 105.067 220.212 105.081 221.224 105.12C230.434 105.386 239.594 107.088 248.431 110.18C271.094 118.127 289.175 134.359 299.344 155.886C309.434 177.246 310.509 201.279 302.373 223.558C291.334 253.805 264.557 275.994 232.491 281.467C230.797 281.752 229.078 281.996 227.379 282.191C224.025 282.566 220.65 282.754 217.298 282.754ZM144.791 239.063C152.482 251.322 163.294 261.454 176.058 268.363C178.763 269.825 181.558 271.151 184.365 272.303C185.654 272.836 187.051 273.37 188.643 273.938C192.941 275.444 197.384 276.618 201.837 277.423C205.571 278.108 209.419 278.547 213.277 278.729C217.792 278.944 222.387 278.795 226.937 278.286C228.562 278.099 230.213 277.866 231.835 277.592C262.511 272.356 288.129 251.134 298.685 222.21C306.458 200.925 305.431 177.968 295.794 157.566C286.078 136.997 268.797 121.486 247.135 113.89C238.68 110.932 229.917 109.302 221.092 109.048C220.126 109.011 219.11 108.997 218.052 109.01C215.33 109.022 212.602 109.163 209.93 109.429C203.785 110.04 197.672 111.32 191.761 113.234C185.904 115.123 180.234 117.641 174.907 120.718C173.194 121.705 171.517 122.749 169.922 123.82C167.437 125.492 165.057 127.271 162.851 129.109C151.18 138.778 142.27 151.4 137.083 165.615C128.11 190.18 130.919 216.951 144.791 239.063Z" fill="#371A45"/>
<path d="M217.298 283.324C215.881 283.324 214.469 283.29 213.064 283.224C209.008 283.032 204.959 282.57 201.032 281.851C196.352 281.004 191.679 279.77 187.147 278.182C185.472 277.584 184.006 277.024 182.653 276.464C179.706 275.255 176.766 273.86 173.92 272.322C160.475 265.044 149.086 254.371 140.984 241.456C126.368 218.157 123.407 189.951 132.861 164.07C138.321 149.107 147.699 135.819 159.981 125.646C162.299 123.714 164.803 121.842 167.416 120.085C169.097 118.956 170.861 117.857 172.661 116.819C178.262 113.585 184.223 110.937 190.38 108.952C196.593 106.94 203.022 105.594 209.485 104.951C212.298 104.671 215.169 104.524 218.019 104.511C219.134 104.497 220.224 104.511 221.245 104.551C230.509 104.818 239.727 106.531 248.619 109.642C271.427 117.64 289.624 133.977 299.858 155.643C310.014 177.141 311.097 201.33 302.908 223.754C291.799 254.192 264.853 276.521 232.587 282.029C230.882 282.316 229.153 282.561 227.444 282.757C224.068 283.134 220.671 283.324 217.298 283.324ZM145.273 238.76C152.912 250.936 163.65 260.999 176.329 267.862C179.016 269.314 181.793 270.631 184.581 271.776C185.862 272.306 187.252 272.837 188.834 273.401C193.101 274.896 197.514 276.062 201.938 276.862C205.649 277.543 209.471 277.979 213.304 278.159C217.788 278.374 222.353 278.225 226.874 277.72C228.488 277.534 230.128 277.302 231.741 277.03C262.215 271.829 287.664 250.747 298.15 222.014C305.871 200.874 304.851 178.072 295.28 157.81C285.628 137.38 268.464 121.973 246.946 114.428C238.547 111.489 229.842 109.87 221.076 109.617C220.113 109.581 219.108 109.568 218.059 109.58C215.35 109.592 212.64 109.732 209.986 109.996C203.882 110.603 197.809 111.875 191.936 113.776C186.117 115.653 180.484 118.155 175.191 121.211C173.489 122.193 171.824 123.23 170.239 124.294C167.77 125.954 165.407 127.722 163.215 129.547C151.62 139.152 142.771 151.691 137.618 165.81C128.706 190.209 131.496 216.798 145.273 238.76H145.273Z" fill="#371A45"/>
<path d="M157.317 257.293C210.759 289.542 279.238 259.846 279.416 198.368C279.536 156.541 238.187 124.418 197.527 127.156C167.934 129.15 139.835 143.883 130.088 190.094C130.088 190.094 128.966 211.188 135.515 224.772C142.063 238.357 150.759 250.461 150.759 250.461L157.317 257.293Z" fill="#371A45"/>
<path d="M279.413 198.368C279.238 259.845 210.757 289.541 157.317 257.295L155.989 255.909C213.125 262.324 267.571 225.327 268.921 163.163C275.542 173.477 279.448 185.461 279.413 198.368Z" fill="#220F2D"/>
<path d="M203.648 281.917C202.908 281.917 202.172 281.908 201.43 281.891L201.037 281.852C196.352 281.004 191.679 279.77 187.147 278.182C185.472 277.584 184.006 277.024 182.653 276.464C179.706 275.255 176.766 273.86 173.92 272.322C160.475 265.044 149.086 254.371 140.984 241.456C126.368 218.157 123.407 189.951 132.861 164.07C138.321 149.107 147.699 135.819 159.981 125.646L160.181 125.48L160.411 125.358C170.704 119.907 182.83 116.677 196.451 115.76C220.972 114.109 246.713 123.545 265.311 141.001C282.066 156.728 291.259 177.092 291.197 198.341C291.128 221.463 282.781 241.793 267.058 257.133C250.847 272.949 227.839 281.917 203.648 281.917ZM201.743 276.827C225.328 277.326 247.829 268.815 263.523 253.503C278.249 239.135 286.067 220.055 286.132 198.326C286.19 178.499 277.565 159.454 261.847 144.7C244.255 128.187 219.933 119.26 196.791 120.818C183.986 121.681 172.622 124.675 163.01 129.718C151.518 139.297 142.741 151.772 137.618 165.81C128.706 190.209 131.496 216.798 145.273 238.76C152.912 250.936 163.65 260.999 176.329 267.862C179.016 269.314 181.793 270.631 184.581 271.776C185.862 272.306 187.252 272.837 188.834 273.401C193.039 274.875 197.384 276.028 201.743 276.827Z" fill="#371A45"/>
<path d="M203.927 273.024C187.594 273.024 170.954 268.482 156.01 259.463L155.723 259.291L148.703 251.94C148.343 251.439 139.802 239.501 133.234 225.874C126.481 211.864 127.513 190.848 127.56 189.959L127.611 189.571C136.163 149.018 159.629 127.168 197.356 124.627C219.244 123.151 242.226 131.575 258.828 147.157C273.792 161.202 282.003 179.391 281.948 198.375C281.869 225.879 268.349 249.245 244.855 262.483C232.356 269.525 218.259 273.024 203.927 273.024ZM158.91 255.293C185.353 271.119 217.303 272.189 242.37 258.065C264.23 245.748 276.809 223.987 276.883 198.36C276.934 180.798 269.292 163.927 255.364 150.855C239.768 136.218 218.207 128.304 197.697 129.685C162.569 132.052 140.671 152.484 132.609 190.416C132.524 192.511 131.93 211.503 137.795 223.671C143.791 236.109 151.73 247.448 152.715 248.839L158.91 255.293Z" fill="#371A45"/>
<path d="M318.108 192.107C320.145 209.105 311.689 224.615 299.217 226.746C286.744 228.876 274.983 216.822 272.946 199.824C272.931 199.718 272.92 199.604 272.911 199.497C271.017 182.627 279.452 167.3 291.837 165.185C301.472 163.538 310.683 170.358 315.315 181.38C316.677 184.626 317.645 188.241 318.108 192.107Z" fill="white"/>
<g opacity="0.35">
<path d="M318.108 192.107C320.145 209.105 311.689 224.615 299.217 226.746C286.744 228.876 274.983 216.822 272.946 199.824C272.931 199.718 272.92 199.604 272.911 199.497C274.492 201.007 276.832 202.36 279.654 201.287C284.596 199.405 292.374 186.922 292.374 186.922C292.374 186.922 302.307 184.454 315.315 181.38C316.677 184.626 317.645 188.241 318.108 192.107Z" fill="#371A45"/>
</g>
<path d="M296.315 229.527C291.877 229.527 287.525 228.008 283.565 225.049C276.483 219.758 271.695 210.673 270.431 200.124C268.239 181.831 277.652 165.037 291.413 162.686C296.985 161.734 302.545 163.183 307.491 166.879C314.574 172.17 319.361 181.255 320.625 191.805C322.817 210.097 313.405 226.892 299.643 229.242C298.532 229.432 297.421 229.527 296.315 229.527ZM294.707 167.475C293.894 167.475 293.079 167.544 292.266 167.683C281.124 169.587 273.585 183.869 275.46 199.52C276.544 208.562 280.706 216.587 286.594 220.986C290.402 223.831 294.62 224.958 298.791 224.245C309.933 222.342 317.472 208.06 315.596 192.408C314.513 183.366 310.35 175.341 304.462 170.942C301.397 168.652 298.066 167.475 294.707 167.475Z" fill="#371A45"/>
<path d="M303.722 222.266C313.999 222.025 322.072 210.799 321.753 197.192C321.435 183.585 312.847 172.749 302.57 172.99C292.294 173.23 284.221 184.457 284.539 198.064C284.857 211.671 293.446 222.507 303.722 222.266Z" fill="white"/>
<path d="M303.422 222.551C301.697 222.551 299.962 222.234 298.245 221.596C288.212 217.869 282.226 204.097 284.902 190.896C286.395 183.536 290.3 177.617 295.618 174.656C299.574 172.454 303.871 172.11 308.047 173.661C318.081 177.387 324.066 191.159 321.39 204.361C319.898 211.721 315.992 217.64 310.674 220.601C308.344 221.898 305.895 222.551 303.422 222.551ZM302.873 173.237C300.487 173.237 298.124 173.867 295.876 175.119C290.693 178.004 286.883 183.793 285.421 191.001C282.795 203.957 288.631 217.459 298.43 221.099C302.456 222.595 306.601 222.262 310.417 220.138C315.6 217.252 319.41 211.463 320.871 204.256C323.498 191.299 317.662 177.797 307.863 174.157C306.209 173.543 304.535 173.237 302.873 173.237Z" fill="#371A45"/>
<g opacity="0.35">
<path d="M286.931 210.15C285.248 205.797 284.771 200.965 285.331 196.302C290.015 205.902 299.746 208.85 307.852 202.773C313.091 198.848 316.443 192.053 317.305 184.837C317.604 185.441 317.879 186.08 318.135 186.74C322.415 197.825 318.9 212.053 310.281 218.517C301.663 224.981 291.21 221.229 286.931 210.15Z" fill="#371A45"/>
</g>
<path d="M303.96 224.81C300.664 224.81 297.416 223.674 294.44 221.46C288.703 217.19 284.657 209.287 283.618 200.318C281.834 184.912 288.947 171.321 299.812 169.376C303.971 168.634 308.148 169.713 311.892 172.498C317.629 176.768 321.675 184.671 322.714 193.64C324.498 209.047 317.385 222.638 306.52 224.582C305.666 224.734 304.811 224.81 303.96 224.81ZM302.339 174.222C301.792 174.222 301.246 174.27 300.704 174.367C292.742 175.792 287.222 187.408 288.65 199.734C289.53 207.34 292.825 213.94 297.462 217.391C300.057 219.322 302.882 220.082 305.629 219.591C313.59 218.166 319.11 206.55 317.683 194.224C316.802 186.618 313.507 180.018 308.87 176.567C306.788 175.018 304.558 174.222 302.339 174.222Z" fill="#371A45"/>
<g opacity="0.5">
<path d="M220.15 142.657C220.15 142.657 181.868 147.667 162.082 170.945L162.019 171.019C157.859 175.922 155.11 181.84 154.013 188.131C152.564 196.451 152.797 202.385 153.206 207.601C154.457 223.461 158.048 230.641 158.048 230.641C148.252 223.027 142.355 213.945 141.18 200.746C141.068 199.444 141.001 198.098 140.976 196.713C140.969 196.394 140.969 196.078 140.975 195.759C140.967 195.757 140.97 195.749 140.978 195.74C141.127 192.931 141.464 189.245 142.196 185.117C144.395 172.666 150.147 156.183 165.041 147.509C192.891 131.289 221.342 140.89 220.15 142.657Z" fill="white"/>
</g>
<g opacity="0.5">
<path d="M252.782 193.209C258.876 190.965 261.729 183.466 259.153 176.46C256.578 169.453 249.551 165.592 243.457 167.836C237.364 170.08 234.511 177.579 237.086 184.586C239.661 191.592 246.689 195.453 252.782 193.209Z" fill="white"/>
</g>
<g opacity="0.5">
<path d="M261.99 209.481C264.408 208.324 265.292 205.131 263.965 202.348C262.637 199.566 259.6 198.247 257.181 199.403C254.763 200.559 253.879 203.753 255.206 206.535C256.534 209.318 259.571 210.637 261.99 209.481Z" fill="white"/>
</g>
<path d="M199.889 363.293L80.516 362.463C76.043 362.427 72.0699 359.6 70.5652 355.386L68.4267 349.377L33.4881 251.326C30.6127 243.259 36.6213 234.789 45.1755 234.846L160.952 235.594C161.596 235.599 162.23 235.65 162.853 235.754C167.234 236.465 170.959 239.509 172.485 243.785L209.989 349.062C212.473 356.025 207.284 363.345 199.889 363.293Z" fill="#333333"/>
<g opacity="0.35">
<path d="M75.0669 360.911L194.306 361.74C201.7 361.792 206.89 354.473 204.406 347.509L166.901 242.232C166.136 240.087 164.817 238.253 163.141 236.868C168.31 256.971 176.329 298.596 161.921 322.549C144.523 351.46 87.5501 350.553 68.4266 349.377L70.5652 355.386C71.4484 357.859 73.1853 359.848 75.3711 361.082C75.2696 361.025 75.1662 360.971 75.0669 360.911Z" fill="#666666"/>
</g>
<g opacity="0.4">
<path d="M38.1352 251.12L77.5518 361.746C74.7176 360.647 72.4244 358.362 71.3629 355.386L34.2858 251.326C31.4104 243.259 37.4189 234.789 45.9732 234.846L161.75 235.594C166.393 235.62 170.582 238.26 172.654 242.325C172.303 242.268 171.948 242.237 171.582 242.237L45.0147 241.417C39.9801 241.386 36.4398 246.374 38.1352 251.12Z" fill="white"/>
</g>
<path d="M199.966 365.606C199.936 365.606 199.906 365.606 199.876 365.605L80.5021 364.773C75.0793 364.735 70.2123 361.275 68.3907 356.162L31.3106 252.105C29.6837 247.54 30.3583 242.654 33.161 238.702C35.9451 234.776 40.2894 232.531 45.0925 232.531C45.1252 232.531 45.1583 232.531 45.1914 232.531L160.966 233.28C167.097 233.32 172.599 237.229 174.658 243.009L212.167 348.283C213.586 352.265 212.973 356.7 210.527 360.147C208.099 363.57 204.156 365.606 199.966 365.606ZM199.908 360.98C199.928 360.98 199.948 360.98 199.969 360.98C202.702 360.98 205.175 359.703 206.76 357.469C208.357 355.218 208.741 352.436 207.815 349.837L170.306 244.563C168.897 240.608 165.131 237.932 160.937 237.905L45.1618 237.156C45.1392 237.156 45.1162 237.156 45.094 237.156C41.8068 237.156 38.8342 238.693 36.9293 241.379C35.0111 244.084 34.5495 247.427 35.6627 250.551L72.7428 354.608C73.9147 357.897 77.0458 360.123 80.534 360.148L199.908 360.98Z" fill="#371A45"/>
<path d="M128.992 297.003L124.805 301.351C124.388 301.78 124.107 302.313 123.977 302.879C123.871 303.327 123.866 303.802 123.961 304.267L124.148 305.179L125.164 310.183C125.707 312.829 122.978 314.95 120.546 313.769L115.12 311.129C114.156 310.661 113.025 310.696 112.09 311.227L106.84 314.2C104.489 315.534 101.633 313.591 102.006 310.913L102.839 304.933C102.984 303.867 102.6 302.8 101.811 302.076L97.3598 298.002C95.4518 296.252 96.2526 293.135 98.6608 292.456C98.7669 292.427 98.8782 292.401 98.9902 292.38L104.931 291.323C105.984 291.134 106.882 290.438 107.325 289.463L109.332 285.053L109.824 283.969C110.945 281.505 114.397 281.397 115.67 283.782L118.508 289.111C119.012 290.056 119.951 290.693 121.017 290.815L127.01 291.495C129.694 291.802 130.862 295.053 128.992 297.003Z" fill="#FFDA22"/>
<g opacity="0.6">
<path d="M128.992 297.003L124.805 301.351C124.388 301.78 124.107 302.313 123.977 302.879C123.776 302.761 123.578 302.633 123.38 302.505C122.968 302.234 122.544 301.94 122.325 301.503C122.054 300.962 122.15 300.29 122.452 299.772C122.758 299.249 123.24 298.857 123.749 298.53C124.566 298.007 125.584 297.478 125.711 296.511C125.806 295.798 125.324 295.108 124.702 294.747C124.08 294.386 123.34 294.295 122.625 294.247C121.612 294.172 120.59 294.168 119.573 294.228C118.871 294.269 118.15 294.341 117.468 294.173C115.961 293.797 114.974 292.343 114.446 290.886C113.914 289.426 113.696 287.851 112.986 286.471C112.826 286.159 112.629 285.846 112.346 285.639C112.07 285.444 111.73 285.355 111.398 285.283C110.706 285.139 110.02 285.068 109.332 285.053L109.824 283.969C110.945 281.505 114.397 281.397 115.67 283.782L118.508 289.111C119.012 290.056 119.951 290.693 121.017 290.815L127.01 291.495C129.694 291.802 130.862 295.053 128.992 297.003Z" fill="white"/>
</g>
<path d="M125.164 310.183C125.707 312.829 122.978 314.95 120.546 313.769L115.12 311.129C114.156 310.661 113.025 310.696 112.09 311.227L106.84 314.2C104.489 315.534 101.633 313.591 102.006 310.913L102.839 304.933C102.984 303.867 102.6 302.8 101.811 302.076L97.3598 298.002C95.4518 296.252 96.2526 293.135 98.6608 292.456C98.7008 292.574 98.7461 292.697 98.812 292.834C99.2396 293.758 100.002 294.545 100.833 295.115C102.437 296.218 104.378 296.895 105.627 298.38C107.388 300.478 107.267 303.496 107.432 306.23C107.464 306.708 107.527 307.238 107.886 307.559C108.229 307.864 108.742 307.886 109.19 307.803C110.694 307.516 111.938 306.259 113.467 306.213C115.56 306.15 120.051 310.806 121.709 309.493C123.03 308.448 120.936 304.908 124.148 305.179L125.164 310.183Z" fill="#FFAA00"/>
<path d="M105.232 316.628C104.202 316.628 103.176 316.321 102.282 315.713C100.616 314.579 99.7532 312.635 100.031 310.637L100.863 304.658C100.92 304.245 100.771 303.83 100.464 303.548L96.0141 299.472C94.5278 298.111 93.9537 296.062 94.5158 294.126C95.0774 292.189 96.6587 290.767 98.6423 290.415L104.58 289.359C104.991 289.286 105.339 289.016 105.512 288.636L108.009 283.14C108.843 281.305 110.612 280.125 112.626 280.062C114.651 279.993 116.479 281.064 117.428 282.843V282.843L120.266 288.171C120.462 288.538 120.826 288.786 121.24 288.833L127.234 289.513C129.236 289.739 130.903 291.059 131.585 292.956C132.268 294.853 131.824 296.934 130.427 298.387L126.242 302.735C125.953 303.035 125.83 303.459 125.914 303.867L127.12 309.783C127.523 311.758 126.785 313.753 125.193 314.989C123.601 316.225 121.487 316.446 119.675 315.564L114.25 312.925C113.876 312.742 113.435 312.756 113.073 312.962L107.825 315.938C107.013 316.399 106.121 316.628 105.232 316.628ZM112.792 284.051C112.778 284.051 112.764 284.051 112.751 284.052C112.515 284.059 111.934 284.147 111.64 284.793L109.142 290.289C108.425 291.865 106.981 292.986 105.278 293.289L99.3399 294.345C98.6404 294.47 98.4118 295.012 98.3455 295.239C98.2797 295.467 98.1827 296.047 98.7066 296.527L103.156 300.603C104.432 301.772 105.051 303.494 104.813 305.208L103.981 311.188C103.884 311.892 104.328 312.278 104.524 312.411C104.719 312.543 105.24 312.815 105.859 312.465L111.107 309.488C112.612 308.635 114.439 308.577 115.994 309.335L121.419 311.974C122.059 312.286 122.561 311.981 122.748 311.835C122.935 311.69 123.354 311.278 123.212 310.582L122.006 304.666C121.66 302.969 122.17 301.212 123.369 299.965L127.554 295.617C128.046 295.105 127.913 294.532 127.833 294.309C127.753 294.086 127.49 293.559 126.785 293.479L120.792 292.799C119.073 292.605 117.561 291.576 116.747 290.049L113.908 284.722V284.722C113.592 284.127 113.049 284.051 112.792 284.051Z" fill="#371A45"/>
<path d="M382.099 253.86C381.455 253.86 380.848 253.467 380.607 252.829C380.294 252.004 380.708 251.083 381.532 250.77C382.231 250.504 398.796 244.309 411.031 248.381C411.867 248.659 412.319 249.563 412.041 250.4C411.763 251.237 410.86 251.688 410.024 251.412C398.876 247.703 382.825 253.695 382.663 253.756C382.478 253.826 382.286 253.86 382.099 253.86Z" fill="#371A45"/>
<path d="M322.227 264.274C322.227 264.274 360.025 304.694 335.281 325.597C314.478 343.171 292.199 319.65 292.199 319.65C292.199 319.65 289.691 327.418 282.052 330.816C272.678 334.986 261.621 327.418 261.621 327.418C261.621 327.418 257.559 338.31 249.254 335.064C240.375 331.594 246.76 299.936 264.673 282.026C285.397 261.305 316.002 279.356 316.002 279.356" fill="white"/>
<g opacity="0.35">
<path d="M343.679 307.575C343.656 314.172 341.346 320.474 335.281 325.597C314.481 343.174 292.196 319.648 292.196 319.648C292.196 319.648 289.689 327.418 282.053 330.818C272.678 334.987 261.622 327.418 261.622 327.418C261.622 327.418 257.562 338.311 249.255 335.062C245.472 333.582 244.461 326.996 245.934 318.532C246.044 324.441 247.488 328.528 250.347 329.112C258.33 330.743 256.805 316.173 256.805 316.173C256.805 316.173 262.754 330.032 276.069 325.545C289.111 321.139 292.196 307.645 292.196 307.645C292.196 307.645 318.57 330.743 336.413 317.179C340.035 314.421 342.362 311.154 343.679 307.575Z" fill="#371A45"/>
</g>
<path d="M322.789 263.747C324.863 265.25 326.686 266.966 328.415 268.787C330.149 270.601 331.745 272.538 333.245 274.553C336.215 278.601 338.87 282.919 340.987 287.549C341.545 288.69 341.992 289.892 342.493 291.063C342.919 292.273 343.408 293.452 343.765 294.693C344.588 297.126 345.167 299.667 345.573 302.246C345.978 304.83 346.06 307.498 345.86 310.164C345.617 312.84 344.92 315.49 343.882 318.005C343.267 319.218 342.716 320.471 341.913 321.57L341.35 322.418L341.067 322.841L340.744 323.23L339.438 324.774C339.024 325.313 338.492 325.719 338.02 326.193C337.528 326.642 337.059 327.13 336.545 327.543L334.99 328.76C334.477 329.171 333.898 329.508 333.354 329.883C331.131 331.324 328.703 332.513 326.124 333.3C323.546 334.082 320.838 334.449 318.157 334.419C312.772 334.361 307.606 332.735 303.017 330.365C300.713 329.176 298.522 327.81 296.447 326.295C295.408 325.539 294.402 324.742 293.418 323.913C292.424 323.067 291.508 322.249 290.522 321.241L294.397 320.361C294.215 320.889 294.066 321.243 293.886 321.657C293.709 322.054 293.527 322.443 293.329 322.822C292.945 323.588 292.506 324.318 292.044 325.035C291.112 326.463 290.021 327.799 288.774 328.996C287.527 330.191 286.13 331.25 284.609 332.115C283.825 332.506 283.078 332.939 282.211 333.22L280.944 333.678L279.64 333.977C276.133 334.748 272.623 334.3 269.404 333.437C267.797 332.973 266.233 332.411 264.731 331.729C263.983 331.383 263.242 331.023 262.515 330.632C261.774 330.223 261.104 329.851 260.317 329.327L263.786 328.227C263.458 329.06 263.15 329.679 262.78 330.372C262.416 331.044 262.017 331.698 261.575 332.335C260.687 333.604 259.639 334.822 258.298 335.846C256.969 336.859 255.298 337.676 253.479 337.895C252.579 338.019 251.661 338 250.793 337.858C249.902 337.729 249.12 337.491 248.29 337.159C247.33 336.734 246.447 336.112 245.82 335.372L245.35 334.815C245.2 334.627 245.098 334.431 244.972 334.237L244.618 333.651C244.513 333.455 244.436 333.259 244.345 333.062C243.649 331.486 243.304 329.922 243.146 328.415C242.809 325.388 243.029 322.49 243.415 319.648C244.239 313.977 245.911 308.562 248.066 303.363C250.245 298.176 252.916 293.187 256.192 288.579C257.826 286.274 259.6 284.059 261.527 281.969C263.419 279.882 265.649 277.902 268.016 276.225C272.768 272.805 278.48 270.785 284.22 270.078C287.098 269.718 289.991 269.702 292.852 269.871C295.711 270.079 298.558 270.42 301.331 271.076C304.103 271.731 306.799 272.66 309.355 273.877C311.898 275.133 314.322 276.606 316.393 278.692C316.703 279.004 316.702 279.508 316.39 279.818C316.192 280.015 315.915 280.086 315.66 280.031L315.611 280.02C310.232 278.813 305.278 277.112 300.181 275.909C297.644 275.3 295.087 274.749 292.499 274.545C289.917 274.303 287.324 274.359 284.783 274.669C279.71 275.303 274.8 277.038 270.667 280.014C266.528 282.908 263.028 286.976 259.964 291.251C256.904 295.551 254.383 300.258 252.331 305.142C250.301 310.029 248.734 315.148 247.99 320.304C247.636 322.868 247.462 325.471 247.736 327.881C247.853 329.09 248.144 330.223 248.55 331.144C248.968 332.075 249.505 332.65 250.059 332.886C251.995 333.67 253.827 333.463 255.5 332.165C256.337 331.531 257.105 330.664 257.779 329.697C258.116 329.212 258.43 328.698 258.716 328.169C258.994 327.66 259.285 327.047 259.457 326.609L259.462 326.595C259.931 325.396 261.282 324.805 262.479 325.275C262.635 325.336 262.791 325.419 262.925 325.509C263.421 325.841 264.097 326.227 264.707 326.56C265.338 326.899 265.985 327.212 266.635 327.515C267.943 328.109 269.289 328.587 270.643 328.981C273.351 329.707 276.15 330.028 278.695 329.45L279.646 329.239L280.552 328.903C281.162 328.723 281.754 328.368 282.35 328.079C283.511 327.416 284.589 326.602 285.569 325.664C286.548 324.726 287.423 323.659 288.177 322.503C288.549 321.923 288.909 321.33 289.215 320.716C289.375 320.412 289.52 320.101 289.656 319.793C289.788 319.502 289.929 319.14 290 318.939L290.007 318.92C290.434 317.703 291.765 317.062 292.981 317.489C293.327 317.611 293.634 317.814 293.875 318.059C294.609 318.809 295.523 319.637 296.403 320.382C297.3 321.137 298.221 321.868 299.17 322.558C301.066 323.943 303.061 325.183 305.126 326.249C309.248 328.382 313.733 329.749 318.207 329.794C320.44 329.818 322.659 329.517 324.788 328.872C326.915 328.221 328.943 327.23 330.842 326.002C331.307 325.677 331.8 325.4 332.245 325.039L333.594 323.983C334.039 323.628 334.418 323.219 334.836 322.841C335.228 322.443 335.694 322.104 336.024 321.657L337.1 320.385L337.369 320.068L337.596 319.721L338.05 319.031C338.715 318.143 339.138 317.124 339.649 316.151C340.475 314.117 341.055 311.973 341.258 309.739C341.411 307.504 341.379 305.223 340.989 302.946C340.245 298.394 338.627 293.913 336.519 289.661C334.446 285.385 332.016 281.245 329.433 277.177C326.855 273.105 324.173 269.057 321.664 264.801L321.653 264.782C321.433 264.409 321.557 263.928 321.93 263.707C322.207 263.544 322.544 263.57 322.789 263.747Z" fill="#371A45"/>
<path d="M257.017 314.864C257.821 317.079 258.668 319.166 259.679 321.024C260.174 321.961 260.769 322.792 261.298 323.611C261.841 324.432 262.442 325.128 262.97 325.947L263.109 326.163C263.708 327.094 263.441 328.334 262.511 328.934C261.805 329.389 260.92 329.343 260.273 328.888C259.155 328.1 258.257 327.032 257.612 325.876C256.967 324.719 256.551 323.47 256.291 322.23C256.032 320.987 255.92 319.74 255.934 318.508C255.967 317.273 256.095 316.06 256.448 314.864C256.494 314.707 256.659 314.617 256.816 314.663C256.91 314.691 256.979 314.76 257.011 314.845L257.017 314.864Z" fill="#371A45"/>
<path d="M292.959 307.048C293.542 308.019 293.965 309.084 294.277 310.171C294.57 311.26 294.786 312.378 294.885 313.496C294.984 314.613 295.039 315.741 294.922 316.85C294.801 317.971 294.615 319.029 294.13 320.146C293.687 321.168 292.5 321.637 291.478 321.193C290.714 320.861 290.259 320.111 290.265 319.326L290.267 319.155C290.275 318.222 290.459 317.204 290.639 316.239C290.817 315.261 291.078 314.29 291.295 313.304C291.519 312.317 291.717 311.325 291.906 310.309C292.103 309.292 292.235 308.266 292.403 307.17L292.405 307.158C292.43 306.994 292.583 306.881 292.747 306.906C292.839 306.92 292.915 306.975 292.959 307.048Z" fill="#371A45"/>
<path d="M325.775 332.983C325.428 332.983 325.077 332.892 324.757 332.701C323.81 332.138 323.5 330.913 324.063 329.965C336.446 309.13 305.68 276.978 305.368 276.656C304.601 275.864 304.62 274.601 305.411 273.834C306.202 273.066 307.464 273.085 308.23 273.876C309.592 275.28 341.431 308.551 327.49 332.007C327.117 332.634 326.455 332.983 325.775 332.983Z" fill="#371A45"/>
</g>
</g>
<defs>
<filter id="filter0_d_57_2" x="25.4402" y="100.506" width="418.849" height="283.1" filterUnits="userSpaceOnUse" color-interpolation-filters="sRGB">
<feFlood flood-opacity="0" result="BackgroundImageFix"/>
<feColorMatrix in="SourceAlpha" type="matrix" values="0 0 0 0 0 0 0 0 0 0 0 0 0 0 0 0 0 0 127 0" result="hardAlpha"/>
<feOffset dx="6" dy="7"/>
<feGaussianBlur stdDeviation="5.5"/>
<feComposite in2="hardAlpha" operator="out"/>
<feColorMatrix type="matrix" values="0 0 0 0 0 0 0 0 0 0 0 0 0 0 0 0 0 0 0.18 0"/>
<feBlend mode="normal" in2="BackgroundImageFix" result="effect1_dropShadow_57_2"/>
<feBlend mode="normal" in="SourceGraphic" in2="effect1_dropShadow_57_2" result="shape"/>
</filter>
<clipPath id="clip0_57_2">
<rect width="485" height="412" fill="white"/>
</clipPath>
</defs>
</svg>
