<svg width="20" height="20" viewBox="0 0 20 20" fill="none" xmlns="http://www.w3.org/2000/svg">
<g id="Facebook">
<path id="Vector" d="M10.0001 -3.05176e-05C4.47724 -3.05176e-05 0 4.49592 0 10.0418C0 15.0159 3.60522 19.1352 8.33225 19.9329V12.1368H5.91994V9.33136H8.33225V7.26271C8.33225 4.86248 9.79213 3.55449 11.9247 3.55449C12.9461 3.55449 13.8238 3.63092 14.0786 3.66458V6.17346L12.5995 6.17418C11.44 6.17418 11.2165 6.72737 11.2165 7.53943V9.32993H13.9832L13.6223 12.1354H11.2165V20C16.1642 19.3953 20 15.171 20 10.039C20 4.49592 15.5228 -3.05176e-05 10.0001 -3.05176e-05Z" fill="white"/>
</g>
</svg>
