<svg width="24" height="24" viewBox="0 0 24 24" fill="none" xmlns="http://www.w3.org/2000/svg">
<g clip-path="url(#clip0_29_3255)">
<rect width="24" height="24" rx="4" fill="#FFC017"/>
<path d="M8.6898 12.989H10.2244V19.7581C10.2244 19.8917 10.3255 20 10.4502 20H13.0522C13.177 20 13.278 19.8917 13.278 19.7581V13.0209H15.0422C15.1569 13.0209 15.2534 12.9287 15.2665 12.8066L15.5345 10.3145C15.5418 10.246 15.5216 10.1773 15.4788 10.1259C15.4359 10.0744 15.3746 10.0449 15.3102 10.0449H13.2781V8.48281C13.2781 8.0119 13.5148 7.77311 13.9816 7.77311C14.0481 7.77311 15.3102 7.77311 15.3102 7.77311C15.435 7.77311 15.536 7.66477 15.536 7.53118V5.24373C15.536 5.11008 15.435 5.00179 15.3102 5.00179H13.4792C13.4662 5.00111 13.4376 5 13.3953 5C13.0776 5 11.9732 5.06682 11.1009 5.92666C10.1344 6.8795 10.2687 8.02037 10.3008 8.21818V10.0449H8.6898C8.56506 10.0449 8.46399 10.1532 8.46399 10.2868V12.747C8.46399 12.8807 8.56506 12.989 8.6898 12.989Z" fill="#333333"/>
</g>
<defs>
<clipPath id="clip0_29_3255">
<rect width="24" height="24" fill="white"/>
</clipPath>
</defs>
</svg>
