<svg width="24" height="24" viewBox="0 0 24 24" fill="none" xmlns="http://www.w3.org/2000/svg">
<g clip-path="url(#clip0_29_3275)">
<rect width="24" height="24" rx="4" fill="#FFC017"/>
<g clip-path="url(#clip1_29_3275)">
<path d="M14.825 5H9.17511C6.88261 5 5.01752 6.99828 5.01752 9.45456V15.5455C5.01752 18.0017 6.88261 20 9.17511 20H14.825C17.1174 20 18.9825 18.0017 18.9825 15.5455V9.45456C18.9825 6.99828 17.1174 5 14.825 5ZM18.4247 15.5454C18.4247 17.6722 16.8099 19.4024 14.825 19.4024H9.17511C7.19014 19.4024 5.5753 17.6722 5.5753 15.5455V9.45456C5.5753 7.32781 7.19014 5.59763 9.17511 5.59763H14.825C16.8099 5.59763 18.4247 7.32781 18.4247 9.45456V15.5454Z" fill="#333333"/>
<path d="M14.8249 6.70782H9.17509C7.76147 6.70782 6.61145 7.93996 6.61145 9.45455V15.5455C6.61145 17.0601 7.76147 18.2922 9.17509 18.2922H14.8249C16.2385 18.2922 17.3886 17.0601 17.3886 15.5455V9.45455C17.3886 7.93999 16.2385 6.70782 14.8249 6.70782ZM16.8308 15.5454C16.8308 16.7305 15.931 17.6946 14.8249 17.6946H9.17509C8.06904 17.6946 7.16921 16.7305 7.16921 15.5454V9.45452C7.16921 8.26949 8.06904 7.30539 9.17509 7.30539V7.30542H14.8249C15.931 7.30542 16.8308 8.26952 16.8308 9.45455V15.5454Z" fill="#333333"/>
<path d="M12 8.63803C10.0125 8.63803 8.39551 10.3705 8.39551 12.5C8.39551 14.6295 10.0125 16.3619 12 16.3619C13.9875 16.3619 15.6045 14.6295 15.6045 12.5C15.6045 10.3705 13.9875 8.63803 12 8.63803ZM12 15.7643C10.32 15.7643 8.95329 14.2999 8.95329 12.5C8.95329 10.7 10.32 9.23566 12 9.23566C13.68 9.23566 15.0467 10.7 15.0467 12.5C15.0467 14.2999 13.6799 15.7643 12 15.7643Z" fill="#333333"/>
<path d="M12 10.3039C10.8698 10.3039 9.95032 11.2891 9.95032 12.5C9.95032 13.7109 10.8698 14.6961 12 14.6961C13.1302 14.6961 14.0496 13.7109 14.0496 12.5C14.0496 11.2891 13.1301 10.3039 12 10.3039ZM12 14.0985C11.1773 14.0985 10.5081 13.3814 10.5081 12.5C10.5081 11.6186 11.1773 10.9015 12 10.9015C12.8226 10.9015 13.4919 11.6186 13.4919 12.5C13.4919 13.3814 12.8226 14.0985 12 14.0985Z" fill="#333333"/>
<path d="M15.4039 7.92508C14.9264 7.92508 14.5378 8.34133 14.5378 8.853C14.5378 9.36467 14.9263 9.78089 15.4039 9.78089C15.8814 9.78089 16.2699 9.36467 16.2699 8.853C16.2699 8.34133 15.8814 7.92508 15.4039 7.92508ZM15.4039 9.18326C15.2339 9.18326 15.0956 9.03511 15.0956 8.853C15.0956 8.67086 15.2339 8.52271 15.4039 8.52271C15.5739 8.52271 15.7121 8.67089 15.7121 8.853C15.7122 9.03511 15.5739 9.18326 15.4039 9.18326Z" fill="#333333"/>
<path d="M11.5538 18.5657H8.93226C8.77823 18.5657 8.65338 18.6995 8.65338 18.8645C8.65338 19.0296 8.77823 19.1633 8.93226 19.1633H11.5538C11.7078 19.1633 11.8326 19.0296 11.8326 18.8645C11.8326 18.6995 11.7078 18.5657 11.5538 18.5657Z" fill="#333333"/>
<path d="M12.6135 18.5657H12.4462C12.2922 18.5657 12.1673 18.6995 12.1673 18.8645C12.1673 19.0296 12.2922 19.1633 12.4462 19.1633H12.6135C12.7675 19.1633 12.8924 19.0296 12.8924 18.8645C12.8924 18.6995 12.7675 18.5657 12.6135 18.5657Z" fill="#333333"/>
</g>
</g>
<defs>
<clipPath id="clip0_29_3275">
<rect width="24" height="24" fill="white"/>
</clipPath>
<clipPath id="clip1_29_3275">
<rect width="14" height="15" fill="white" transform="translate(5 5)"/>
</clipPath>
</defs>
</svg>
