<svg width="20" height="20" viewBox="0 0 20 20" fill="none" xmlns="http://www.w3.org/2000/svg">
<path id="Vector" d="M10 -3.05176e-05C4.478 -3.05176e-05 0 4.47797 0 9.99997C0 15.522 4.478 20 10 20C15.522 20 20 15.522 20 9.99997C20 4.47797 15.522 -3.05176e-05 10 -3.05176e-05ZM7.09412 15.1172H4.65866V7.79004H7.09412V15.1172ZM5.87646 6.78952H5.8606C5.04333 6.78952 4.51477 6.22693 4.51477 5.5238C4.51477 4.80481 5.05951 4.25778 5.89264 4.25778C6.72577 4.25778 7.23846 4.80481 7.25433 5.5238C7.25433 6.22693 6.72577 6.78952 5.87646 6.78952ZM15.8759 15.1172H13.4407V11.1973C13.4407 10.2122 13.0881 9.54037 12.2069 9.54037C11.5341 9.54037 11.1334 9.99356 10.9573 10.431C10.8929 10.5876 10.8772 10.8064 10.8772 11.0254V15.1172H8.44193C8.44193 15.1172 8.47382 8.47745 8.44193 7.79004H10.8772V8.82748C11.2009 8.32822 11.7799 7.61807 13.0721 7.61807C14.6744 7.61807 15.8759 8.66528 15.8759 10.9158V15.1172Z" fill="white"/>
</svg>
