<svg width="24" height="24" viewBox="0 0 24 24" fill="none" xmlns="http://www.w3.org/2000/svg">
<g clip-path="url(#clip0_29_3410)">
<rect width="24" height="24" rx="4" fill="#FFC017"/>
<g clip-path="url(#clip1_29_3410)">
<path d="M18.6826 7.77683C18.4627 7.88135 18.2366 7.96956 18.0055 8.04117C18.2791 7.70972 18.4876 7.31972 18.6149 6.89295C18.6435 6.79729 18.6139 6.69258 18.5405 6.63001C18.4672 6.5674 18.3654 6.5599 18.2847 6.61114C17.794 6.92295 17.2646 7.14703 16.7095 7.27806C16.1504 6.69267 15.391 6.35953 14.6059 6.35953C12.9487 6.35953 11.6004 7.80403 11.6004 9.57954C11.6004 9.71938 11.6087 9.85845 11.625 9.99558C9.56863 9.80212 7.65682 8.71917 6.34398 6.99374C6.29719 6.93224 6.22511 6.89909 6.15132 6.90543C6.07748 6.91162 6.01114 6.95624 5.97384 7.0248C5.70756 7.51433 5.5668 8.07422 5.5668 8.64388C5.5668 9.41977 5.82535 10.1559 6.28206 10.7312C6.14319 10.6796 6.00843 10.6152 5.87981 10.5387C5.81076 10.4975 5.72649 10.4982 5.65789 10.5403C5.58924 10.5825 5.5462 10.66 5.5444 10.7447C5.54408 10.759 5.54408 10.7733 5.54408 10.7877C5.54408 11.9459 6.12585 12.9886 7.0153 13.5569C6.93889 13.5487 6.86252 13.5368 6.78665 13.5213C6.70843 13.5053 6.628 13.5347 6.57525 13.5986C6.52241 13.6624 6.50493 13.7515 6.52927 13.8328C6.8585 14.9341 7.70613 15.7441 8.73084 15.9911C7.88095 16.5614 6.90904 16.8602 5.88875 16.8602C5.67586 16.8602 5.46175 16.8468 5.2522 16.8202C5.14811 16.8069 5.04857 16.8728 5.01312 16.9789C4.97767 17.085 5.01524 17.2033 5.1038 17.2641C6.41452 18.1645 7.93009 18.6405 9.48657 18.6405C12.5464 18.6405 14.4606 17.0945 15.5275 15.7976C16.858 14.1804 17.621 12.0399 17.621 9.92498C17.621 9.83662 17.6198 9.7474 17.6172 9.65846C18.1421 9.23474 18.5941 8.72193 18.9618 8.13253C19.0177 8.04301 19.0116 7.92471 18.9469 7.8423C18.8823 7.75985 18.7746 7.73319 18.6826 7.77683Z" fill="#333333"/>
</g>
</g>
<defs>
<clipPath id="clip0_29_3410">
<rect width="24" height="24" fill="white"/>
</clipPath>
<clipPath id="clip1_29_3410">
<rect width="14" height="15" fill="white" transform="translate(5 5)"/>
</clipPath>
</defs>
</svg>
