<svg width="20" height="20" viewBox="0 0 20 20" fill="none" xmlns="http://www.w3.org/2000/svg">
<g id="twitter (2) 1" clip-path="url(#clip0_1461_685)">
<path id="Vector" d="M10 -3.05176e-05C4.478 -3.05176e-05 0 4.47797 0 9.99997C0 15.522 4.478 20 10 20C15.522 20 20 15.522 20 9.99997C20 4.47797 15.522 -3.05176e-05 10 -3.05176e-05ZM14.5659 7.79691C14.5703 7.89532 14.5724 7.9942 14.5724 8.09354C14.5724 11.1265 12.2638 14.624 8.04184 14.6241H8.04199H8.04184C6.74561 14.6241 5.5394 14.2442 4.52362 13.5931C4.70322 13.6143 4.88602 13.6248 5.07111 13.6248C6.14655 13.6248 7.13623 13.258 7.92191 12.6423C6.91711 12.6237 6.06995 11.9601 5.77759 11.0481C5.91751 11.075 6.0614 11.0896 6.20895 11.0896C6.41846 11.0896 6.6214 11.0614 6.81427 11.0087C5.76401 10.7985 4.97284 9.87027 4.97284 8.75882C4.97284 8.74844 4.97284 8.73914 4.97314 8.72952C5.28244 8.90149 5.63614 9.00494 6.01273 9.01654C5.39642 8.60532 4.9913 7.90234 4.9913 7.10599C4.9913 6.68546 5.10498 6.29147 5.30212 5.95227C6.43402 7.34113 8.12561 8.25452 10.0333 8.35049C9.9939 8.18234 9.9736 8.00717 9.9736 7.82712C9.9736 6.56003 11.0016 5.53204 12.2691 5.53204C12.9294 5.53204 13.5257 5.81113 13.9445 6.25729C14.4675 6.15414 14.9585 5.9631 15.4021 5.7002C15.2304 6.23593 14.8666 6.68546 14.3927 6.96973C14.857 6.91418 15.2995 6.79105 15.7108 6.60825C15.4036 7.0686 15.014 7.47296 14.5659 7.79691Z" fill="white"/>
</g>
<defs>
<clipPath id="clip0_1461_685">
<rect width="20" height="20" fill="white"/>
</clipPath>
</defs>
</svg>
