<svg width="24" height="24" viewBox="0 0 24 24" fill="none" xmlns="http://www.w3.org/2000/svg">
<g clip-path="url(#clip0_29_3385)">
<rect width="24" height="24" rx="4" fill="#FFC017"/>
<path d="M11.8361 10.6665C12.196 10.6665 12.4694 10.5244 12.6646 10.2394C12.8136 10.0303 12.8828 9.695 12.8828 9.25118V7.78647C12.8828 7.34265 12.8136 7.01618 12.6646 6.80706C12.4686 6.52382 12.1952 6.38088 11.8361 6.38088C11.4836 6.38088 11.2102 6.52294 11.0167 6.80706C10.8676 7.01706 10.7976 7.34353 10.7976 7.78735V9.25206C10.7976 9.69588 10.8676 10.0224 11.0167 10.2403C11.2102 10.5244 11.4836 10.6665 11.8361 10.6665ZM11.5001 7.63647C11.5001 7.25176 11.6096 7.05941 11.8361 7.05941C12.0708 7.05941 12.1721 7.25176 12.1721 7.63647V9.39412C12.1721 9.77971 12.0708 9.98 11.8361 9.98C11.6096 9.98 11.5001 9.77882 11.5001 9.39412V7.63647ZM13.5235 10.3568C13.484 10.2306 13.4617 10.0303 13.4617 9.72941V6.43118H14.1725V9.50265C14.1725 9.67912 14.1725 9.77882 14.1807 9.79647C14.1963 9.91382 14.2507 9.98 14.3446 9.98C14.4846 9.98 14.6328 9.86265 14.7893 9.62V6.43118H15.5V10.6082H14.7893V10.1476C14.5085 10.4988 14.2433 10.6665 13.9839 10.6665C13.7574 10.6665 13.5935 10.5668 13.5235 10.3568ZM16.2272 15.4215V15.8062H15.5239V15.4215C15.5239 15.0447 15.6416 14.8515 15.8755 14.8515C16.1094 14.8524 16.2272 15.0447 16.2272 15.4215ZM8.58563 6.56529C8.41434 6.04647 8.24304 5.51882 8.07751 5H8.90681L9.46104 7.20147L9.99222 5H10.7894L9.84398 8.33971V10.6082H9.06328V8.33971C8.99245 7.92941 8.83598 7.34353 8.58563 6.56529ZM17.586 12.7515C17.4452 12.0897 16.937 11.6044 16.3359 11.5294C14.898 11.3618 13.4445 11.3618 11.9992 11.3618C10.5539 11.3618 9.10034 11.3618 7.67069 11.5294C7.06292 11.6044 6.56222 12.0897 6.41398 12.7515C6.21881 13.6885 6.21057 14.7103 6.21057 15.6809C6.21057 16.6435 6.21057 17.6724 6.41398 18.6103C6.55481 19.2721 7.06292 19.7574 7.6641 19.8244C9.10116 20 10.5547 20 12 20C13.4453 20 14.8988 20 16.3367 19.8244C16.937 19.7574 17.4377 19.2721 17.5868 18.6103C17.782 17.6732 17.7902 16.6435 17.7902 15.6809C17.7894 14.7103 17.7894 13.6885 17.586 12.7515ZM9.51539 13.5968H8.68034V18.3597H7.89881V13.5968H7.07775V12.8097H9.51539V13.5968ZM11.6253 18.3597H10.9294V17.9079C10.6477 18.2512 10.3826 18.4188 10.1322 18.4188C9.90657 18.4188 9.74187 18.3182 9.67928 18.1091C9.63975 17.9838 9.61669 17.7906 9.61669 17.4985V14.2259H10.3126V17.2726C10.3126 17.4491 10.3126 17.5409 10.32 17.5665C10.3365 17.6829 10.3908 17.7421 10.4839 17.7421C10.6255 17.7421 10.7737 17.6256 10.9294 17.3909V14.2268H11.6253V18.3597ZM14.282 17.1209C14.282 17.5065 14.2655 17.7818 14.2112 17.9574C14.1255 18.2591 13.9295 18.4179 13.6561 18.4179C13.4066 18.4179 13.1636 18.2671 12.9289 17.9574V18.3597H12.2347V12.8097H12.9289V14.6265C13.1554 14.3247 13.3983 14.1747 13.6561 14.1747C13.9295 14.1747 14.1255 14.3335 14.2112 14.6432C14.2655 14.8109 14.282 15.0862 14.282 15.4718V17.1209ZM16.9222 16.4344H15.5239V17.1624C15.5239 17.5479 15.6416 17.7394 15.8837 17.7394C16.0559 17.7394 16.1572 17.6397 16.1967 17.4385C16.2041 17.3971 16.2123 17.2294 16.2123 16.9276H16.923V17.0371C16.923 17.2797 16.923 17.4474 16.9074 17.5224C16.8909 17.6891 16.8283 17.84 16.7435 17.9741C16.5549 18.2671 16.2667 18.4179 15.9002 18.4179C15.5329 18.4179 15.2587 18.2759 15.0561 17.9909C14.9079 17.7897 14.8296 17.4632 14.8296 17.0194V15.5715C14.8296 15.1276 14.9005 14.81 15.0487 14.6C15.2521 14.315 15.5255 14.1729 15.8854 14.1729C16.2379 14.1729 16.5105 14.315 16.713 14.6C16.8547 14.8091 16.9247 15.1268 16.9247 15.5715V16.4344H16.9222ZM13.5861 15.4126V17.1791C13.5861 17.5559 13.484 17.7394 13.2814 17.7394C13.1636 17.7394 13.0467 17.6812 12.9289 17.5559V15.0368C13.0467 14.9106 13.1636 14.8524 13.2814 14.8524C13.484 14.8524 13.5861 15.0447 13.5861 15.4126Z" fill="#333333"/>
</g>
<defs>
<clipPath id="clip0_29_3385">
<rect width="24" height="24" fill="white"/>
</clipPath>
</defs>
</svg>
