<svg width="101" height="35" viewBox="0 0 101 35" fill="none" xmlns="http://www.w3.org/2000/svg">
<path d="M44.82 34.9C41.484 34.9 38.244 34.312 35.1 33.136C31.98 31.984 28.884 30.532 25.812 28.78C24.516 28.036 23.22 27.256 21.924 26.44C20.652 25.624 19.38 24.796 18.108 23.956C16.86 25.156 15.564 26.128 14.22 26.872C12.9 27.616 11.532 27.988 10.116 27.988C9.18 27.988 8.124 27.772 6.948 27.34C5.796 26.932 4.824 26.356 4.032 25.612C3.384 24.988 2.796 24.292 2.268 23.524C1.764 22.732 1.344 21.952 1.008 21.184C0.696 20.416 0.48 19.756 0.36 19.204C0.216 18.436 0.144 17.764 0.144 17.188C0.144 16.012 0.396 15.184 0.9 14.704C1.428 14.2 2.1 13.948 2.916 13.948C3.612 13.948 4.368 14.104 5.184 14.416C6 14.704 6.804 15.088 7.596 15.568C9.276 16.576 10.932 17.632 12.564 18.736C14.196 19.84 15.816 20.932 17.424 22.012C18.024 21.364 18.612 20.668 19.188 19.924C19.764 19.18 20.34 18.436 20.916 17.692C19.548 17.548 18.312 17.14 17.208 16.468C16.104 15.772 15.216 14.848 14.544 13.696C13.896 12.52 13.572 11.176 13.572 9.664C13.572 8.728 13.764 7.816 14.148 6.928C14.556 6.016 15.108 5.2 15.804 4.48C16.5 3.736 17.28 3.148 18.144 2.716C19.032 2.284 19.956 2.068 20.916 2.068C21.732 2.068 22.572 2.272 23.436 2.68C23.772 2.848 23.94 3.04 23.94 3.256C23.94 3.496 23.784 3.616 23.472 3.616C23.352 3.616 23.256 3.592 23.184 3.544C22.728 3.28 22.248 3.148 21.744 3.148C20.928 3.148 20.076 3.388 19.188 3.868C18.3 4.324 17.508 4.972 16.812 5.812C16.14 6.652 15.696 7.648 15.48 8.8C15.432 9.064 15.396 9.328 15.372 9.592C15.348 9.856 15.336 10.12 15.336 10.384C15.336 12.232 15.9 13.744 17.028 14.92C18.18 16.096 19.692 16.696 21.564 16.72C22.26 15.784 22.848 14.908 23.328 14.092C24.312 12.556 25.236 10.984 26.1 9.376C26.964 7.744 27.864 6.268 28.8 4.948C29.736 3.628 30.768 2.536 31.896 1.672C33.048 0.808 34.38 0.375999 35.892 0.375999C36.588 0.375999 37.092 0.615999 37.404 1.096C37.716 1.576 37.872 2.068 37.872 2.572C37.872 3.7 37.596 4.912 37.044 6.208C36.516 7.48 35.772 8.752 34.812 10.024C33.852 11.272 32.748 12.436 31.5 13.516C30.276 14.572 28.956 15.472 27.54 16.216C26.124 16.936 24.696 17.404 23.256 17.62C22.584 18.58 21.888 19.528 21.168 20.464C20.472 21.376 19.74 22.24 18.972 23.056C20.028 23.776 21.084 24.472 22.14 25.144C23.196 25.84 24.264 26.5 25.344 27.124C28.32 28.876 31.368 30.316 34.488 31.444C37.632 32.596 40.968 33.172 44.496 33.172C45.216 33.172 46.008 33.088 46.872 32.92C47.736 32.752 48.564 32.476 49.356 32.092C50.172 31.708 50.832 31.192 51.336 30.544C51.864 29.92 52.128 29.128 52.128 28.168C52.128 27.544 52.032 26.968 51.84 26.44C51.672 25.912 51.444 25.42 51.156 24.964C51.084 24.82 51.048 24.712 51.048 24.64C51.048 24.52 51.108 24.436 51.228 24.388C51.252 24.388 51.264 24.388 51.264 24.388C51.288 24.364 51.312 24.352 51.336 24.352C51.432 24.352 51.516 24.388 51.588 24.46C51.684 24.508 51.768 24.556 51.84 24.604C52.392 25.036 52.752 25.6 52.92 26.296C53.112 27.016 53.208 27.628 53.208 28.132C53.208 30.34 52.476 32.02 51.012 33.172C49.572 34.324 47.508 34.9 44.82 34.9ZM24.084 16.36C25.428 15.976 26.712 15.352 27.936 14.488C29.184 13.624 30.324 12.628 31.356 11.5C32.412 10.372 33.324 9.232 34.092 8.08C34.86 6.928 35.424 5.884 35.784 4.948C35.856 4.756 35.94 4.444 36.036 4.012C36.156 3.58 36.216 3.16 36.216 2.752C36.216 2.368 36.144 2.056 36 1.816C35.88 1.576 35.664 1.456 35.352 1.456C34.68 1.408 34.056 1.624 33.48 2.104C32.928 2.56 32.412 3.1 31.932 3.724C31.332 4.468 30.744 5.284 30.168 6.172C29.616 7.036 29.064 7.924 28.512 8.836L24.084 16.36ZM6.336 25.9C6.888 26.164 7.428 26.356 7.956 26.476C8.484 26.596 9 26.656 9.504 26.656C10.8 26.656 12.024 26.308 13.176 25.612C14.352 24.916 15.48 24.016 16.56 22.912C15.024 21.904 13.476 20.908 11.916 19.924C10.38 18.916 8.82 17.932 7.236 16.972C6.612 16.588 6.024 16.324 5.472 16.18C4.92 16.012 4.416 15.928 3.96 15.928C3.216 15.928 2.64 16.132 2.232 16.54C1.848 16.948 1.704 17.476 1.8 18.124C1.992 19.276 2.316 20.464 2.772 21.688C3.252 22.888 3.948 23.944 4.86 24.856C5.052 25.048 5.268 25.228 5.508 25.396C5.748 25.588 6.024 25.756 6.336 25.9ZM34.0526 25.648C33.1646 25.648 32.5166 25.408 32.1086 24.928C31.7006 24.448 31.4966 23.908 31.4966 23.308C31.4966 23.116 31.5086 22.936 31.5326 22.768C31.5806 22.576 31.6286 22.384 31.6766 22.192C31.8446 21.712 32.1446 21.124 32.5766 20.428C33.0326 19.732 33.5366 19.072 34.0886 18.448C34.6406 17.8 35.1686 17.332 35.6726 17.044C35.4326 16.78 35.3126 16.456 35.3126 16.072C35.3126 15.208 35.9846 14.572 37.3286 14.164C37.6646 14.044 38.0246 13.972 38.4086 13.948C38.8166 13.9 39.2366 13.876 39.6686 13.876C40.2206 13.876 40.7606 13.912 41.2886 13.984C42.0566 14.104 42.7286 14.44 43.3046 14.992C43.8806 15.52 44.2166 16.168 44.3126 16.936C44.3606 17.2 44.3606 17.464 44.3126 17.728C44.6966 17.752 45.0686 17.764 45.4286 17.764C45.8126 17.74 46.1606 17.728 46.4726 17.728C47.1926 17.728 47.9246 17.68 48.6686 17.584C49.4366 17.464 50.1326 17.332 50.7566 17.188C51.4046 17.02 51.8846 16.852 52.1966 16.684C52.3886 16.612 52.5326 16.576 52.6286 16.576C52.8206 16.576 52.9406 16.648 52.9886 16.792C52.9886 17.032 52.7606 17.26 52.3046 17.476C51.7766 17.716 50.9726 17.956 49.8926 18.196C48.8126 18.436 47.6726 18.58 46.4726 18.628C46.1846 18.652 45.8366 18.676 45.4286 18.7C45.0446 18.7 44.6126 18.7 44.1326 18.7C43.8686 19.66 43.3526 20.56 42.5846 21.4C41.8406 22.24 40.9646 22.984 39.9566 23.632C38.9486 24.256 37.9166 24.748 36.8606 25.108C35.8286 25.468 34.8926 25.648 34.0526 25.648ZM43.0166 17.656C43.1366 17.296 43.1966 16.984 43.1966 16.72C43.1966 16.288 43.0166 15.916 42.6566 15.604C42.3206 15.292 41.6726 15.136 40.7126 15.136C39.7286 15.136 38.9006 15.28 38.2286 15.568C37.5806 15.832 37.2566 16.072 37.2566 16.288C37.2566 16.336 37.3046 16.408 37.4006 16.504C37.4966 16.6 37.6886 16.696 37.9766 16.792C38.7446 17.032 39.5606 17.224 40.4246 17.368C41.2886 17.512 42.1526 17.608 43.0166 17.656ZM34.7366 24.604C35.1926 24.508 35.7566 24.292 36.4286 23.956C37.1246 23.62 37.8446 23.2 38.5886 22.696C39.3566 22.168 40.0646 21.592 40.7126 20.968C41.3846 20.368 41.9966 19.6 42.5486 18.664C41.6606 18.664 40.7846 18.652 39.9206 18.628C39.0806 18.604 38.3246 18.436 37.6526 18.124C37.3646 18.148 36.9566 18.376 36.4286 18.808C35.9006 19.216 35.3726 19.732 34.8446 20.356C34.3166 20.98 33.8606 21.616 33.4766 22.264C33.1166 22.888 32.9366 23.428 32.9366 23.884C32.9366 24.1 33.0086 24.292 33.1526 24.46C33.3206 24.604 33.6086 24.676 34.0166 24.676C34.1126 24.676 34.2206 24.676 34.3406 24.676C34.4606 24.652 34.5926 24.628 34.7366 24.604ZM51.1957 25.828C50.3797 25.828 49.6357 25.66 48.9637 25.324C48.3157 25.012 47.9917 24.376 47.9917 23.416C47.9917 22.768 48.2317 22.036 48.7117 21.22C49.2157 20.38 49.8637 19.492 50.6557 18.556C51.4717 17.62 52.3477 16.684 53.2837 15.748C54.2437 14.812 55.1797 13.936 56.0917 13.12C55.8517 13.072 55.6237 13.024 55.4077 12.976C55.2157 12.928 55.0237 12.88 54.8317 12.832C53.7517 12.568 52.4557 12.256 50.9437 11.896C49.4557 11.512 47.8597 11.152 46.1557 10.816C44.4757 10.456 42.7357 10.156 40.9357 9.916C39.1357 9.652 37.3837 9.52 35.6797 9.52C33.4477 9.52 31.4197 9.808 29.5957 10.384C27.7717 10.96 26.3797 11.98 25.4197 13.444C25.3477 13.54 25.2757 13.624 25.2037 13.696C25.1317 13.768 25.0597 13.816 24.9877 13.84C24.9637 13.84 24.9517 13.852 24.9517 13.876C24.9277 13.876 24.9037 13.876 24.8797 13.876C24.7357 13.876 24.6397 13.792 24.5917 13.624C24.5677 13.576 24.5557 13.504 24.5557 13.408C24.5557 13.096 24.6397 12.844 24.8077 12.652C25.5757 11.524 26.5477 10.636 27.7237 9.988C28.8757 9.34 30.1717 8.884 31.6117 8.62C33.0277 8.332 34.5037 8.188 36.0397 8.188C37.5997 8.188 39.1717 8.296 40.7557 8.512C42.3397 8.704 43.8637 8.956 45.3277 9.268C46.7917 9.556 48.1357 9.868 49.3597 10.204C50.6077 10.516 51.6517 10.792 52.4917 11.032C53.0677 11.176 53.7637 11.344 54.5797 11.536C55.3957 11.728 56.2837 11.908 57.2437 12.076L59.3677 10.24C59.2717 9.976 59.3677 9.652 59.6557 9.268C59.9677 8.884 60.3997 8.572 60.9517 8.332C60.9997 8.308 61.1077 8.296 61.2757 8.296C61.5157 8.296 61.7917 8.332 62.1037 8.404C62.4157 8.476 62.6917 8.584 62.9317 8.728C63.1717 8.872 63.2917 9.052 63.2917 9.268C63.2917 9.364 63.2077 9.496 63.0397 9.664C62.8717 9.832 62.6797 9.988 62.4637 10.132C62.2717 10.276 62.1397 10.372 62.0677 10.42C61.8037 10.564 61.4317 10.816 60.9517 11.176C60.4957 11.512 59.9557 11.92 59.3317 12.4C61.0597 12.664 62.7037 12.796 64.2637 12.796C65.4637 12.796 66.5317 12.7 67.4677 12.508C68.4037 12.292 69.1477 11.932 69.6997 11.428C70.2517 10.924 70.5277 10.252 70.5277 9.412C70.5277 9.316 70.5277 9.232 70.5277 9.16C70.5277 9.064 70.5157 8.968 70.4917 8.872V8.836C70.4917 8.596 70.6237 8.476 70.8877 8.476C71.0797 8.476 71.2117 8.584 71.2837 8.8C71.3077 8.944 71.3197 9.088 71.3197 9.232C71.3437 9.376 71.3557 9.52 71.3557 9.664C71.3557 10.816 71.0197 11.728 70.3477 12.4C69.6757 13.048 68.7997 13.516 67.7197 13.804C66.6397 14.068 65.4757 14.2 64.2277 14.2C63.1957 14.2 62.1397 14.128 61.0597 13.984C60.0037 13.84 58.9837 13.684 57.9997 13.516C57.0397 14.308 56.0677 15.172 55.0837 16.108C54.0997 17.044 53.1877 17.968 52.3477 18.88C51.5077 19.792 50.8237 20.632 50.2957 21.4C49.7917 22.168 49.5397 22.792 49.5397 23.272C49.5397 24.208 50.2957 24.676 51.8077 24.676C52.9357 24.676 54.2557 24.4 55.7677 23.848C55.9117 23.8 56.0557 23.752 56.1997 23.704C56.3677 23.632 56.5357 23.56 56.7037 23.488C57.8077 23.008 58.8997 22.408 59.9797 21.688C61.0597 20.944 62.0437 20.2 62.9317 19.456C63.0517 19.336 63.1717 19.24 63.2917 19.168C63.4117 19.072 63.5197 18.988 63.6157 18.916C63.7357 18.82 63.8437 18.736 63.9397 18.664C64.0597 18.568 64.1917 18.46 64.3357 18.34C64.4797 18.292 64.5757 18.268 64.6237 18.268C64.7917 18.268 64.8757 18.352 64.8757 18.52C64.8757 18.688 64.8157 18.832 64.6957 18.952C64.5517 19.144 64.2037 19.504 63.6517 20.032C63.0997 20.536 62.4157 21.1 61.5997 21.724C60.7837 22.348 59.8957 22.948 58.9357 23.524C57.9997 24.1 57.0517 24.556 56.0917 24.892C55.6117 25.06 54.9037 25.252 53.9677 25.468C53.0317 25.708 52.1077 25.828 51.1957 25.828ZM73.5157 25.396C72.3637 25.396 71.5717 25.144 71.1397 24.64C70.7077 24.136 70.4917 23.512 70.4917 22.768C70.4917 22.408 70.5397 22.036 70.6357 21.652C70.7317 21.244 70.8397 20.86 70.9597 20.5C70.5757 20.908 70.1077 21.376 69.5557 21.904C69.0277 22.432 68.4397 22.948 67.7917 23.452C67.1677 23.956 66.5437 24.376 65.9197 24.712C65.2957 25.024 64.6957 25.18 64.1197 25.18C63.3997 25.18 62.8117 24.868 62.3557 24.244C62.0677 23.812 61.9237 23.368 61.9237 22.912C61.9237 22.36 62.0677 21.832 62.3557 21.328C62.6677 20.8 63.0157 20.296 63.3997 19.816C63.8077 19.312 64.1557 18.856 64.4437 18.448C64.9957 17.632 65.4637 16.852 65.8477 16.108C66.2317 15.364 66.4237 14.764 66.4237 14.308C66.4237 14.044 66.3397 13.84 66.1717 13.696C65.8837 13.48 65.7397 13.228 65.7397 12.94C65.7397 12.748 65.8477 12.652 66.0637 12.652C66.2077 12.652 66.3877 12.724 66.6037 12.868C66.7717 12.964 66.9517 13.096 67.1437 13.264C67.3357 13.432 67.5157 13.624 67.6837 13.84C67.7797 13.936 67.8637 14.032 67.9357 14.128C68.0077 14.224 68.0797 14.32 68.1517 14.416C68.1997 14.536 68.2477 14.668 68.2957 14.812C68.3437 14.932 68.3677 15.076 68.3677 15.244C68.3677 15.628 68.2357 16.048 67.9717 16.504C67.7077 16.96 67.3717 17.452 66.9637 17.98C66.5797 18.508 66.1717 19.048 65.7397 19.6C65.5477 19.84 65.2477 20.248 64.8397 20.824C64.4557 21.376 64.1077 21.928 63.7957 22.48C63.6517 22.768 63.5197 23.032 63.3997 23.272C63.3037 23.512 63.2557 23.728 63.2557 23.92C63.2557 24.232 63.4357 24.388 63.7957 24.388C64.1317 24.388 64.5397 24.256 65.0197 23.992C65.5237 23.704 66.0037 23.392 66.4597 23.056C66.9157 22.696 67.2517 22.432 67.4677 22.264C68.2357 21.616 69.0277 20.944 69.8437 20.248C70.6837 19.528 71.4877 18.844 72.2557 18.196C72.3757 18.1 72.5317 18.052 72.7237 18.052C73.0597 18.052 73.3237 18.148 73.5157 18.34C73.6117 18.412 73.6597 18.544 73.6597 18.736C73.6597 19.12 73.4677 19.672 73.0837 20.392C72.9877 20.608 72.8797 20.836 72.7597 21.076C72.6397 21.292 72.5317 21.52 72.4357 21.76C72.3397 22 72.2437 22.228 72.1477 22.444C72.0757 22.66 72.0277 22.876 72.0037 23.092C71.9797 23.164 71.9677 23.236 71.9677 23.308C71.9677 23.38 71.9677 23.452 71.9677 23.524C71.9677 23.908 72.0757 24.172 72.2917 24.316C72.5077 24.436 72.7717 24.496 73.0837 24.496C73.5397 24.496 74.0077 24.424 74.4877 24.28C74.9917 24.112 75.3997 23.98 75.7117 23.884C76.9357 23.404 78.1717 22.756 79.4197 21.94C80.6917 21.124 81.8317 20.308 82.8397 19.492C83.0797 19.276 83.3077 19.084 83.5237 18.916C83.7637 18.748 84.0037 18.544 84.2437 18.304C84.4117 18.136 84.5437 18.04 84.6397 18.016H84.7117C84.9037 18.016 84.9637 18.124 84.8917 18.34C84.8437 18.532 84.7477 18.724 84.6037 18.916C84.3877 19.276 83.9917 19.732 83.4157 20.284C82.8397 20.812 82.1437 21.376 81.3277 21.976C80.5357 22.552 79.6837 23.104 78.7717 23.632C77.8597 24.16 76.9477 24.592 76.0357 24.928C75.1237 25.24 74.2837 25.396 73.5157 25.396ZM82.3964 26.44C82.1084 26.392 81.8324 26.284 81.5684 26.116C81.3284 25.972 81.2084 25.744 81.2084 25.432C81.2084 24.904 81.4964 24.352 82.0724 23.776C82.6484 23.176 83.3684 22.6 84.2324 22.048C85.0964 21.496 85.9484 21.04 86.7884 20.68C86.2604 20.128 85.8404 19.6 85.5284 19.096C85.2164 18.568 85.0604 18.04 85.0604 17.512C85.0604 16.792 85.3964 16.108 86.0684 15.46C86.7404 14.788 87.8084 14.128 89.2724 13.48C89.9684 13.168 90.5924 12.952 91.1444 12.832C91.7204 12.712 92.2244 12.652 92.6564 12.652C93.2084 12.652 93.6644 12.724 94.0244 12.868C94.3844 13.012 94.6484 13.18 94.8164 13.372C95.2004 13.828 95.3924 14.284 95.3924 14.74C95.3924 15.316 95.1404 15.808 94.6364 16.216C94.1324 16.624 93.6644 16.96 93.2324 17.224C93.1604 17.248 93.0884 17.284 93.0164 17.332C92.9444 17.38 92.8844 17.428 92.8364 17.476C92.6924 17.572 92.6084 17.632 92.5844 17.656C92.3684 17.848 92.1524 17.896 91.9364 17.8C91.8164 17.728 91.7564 17.632 91.7564 17.512C91.7564 17.392 91.8164 17.296 91.9364 17.224C92.2004 17.104 92.5004 16.876 92.8364 16.54C93.1964 16.18 93.5084 15.808 93.7724 15.424C94.0604 15.016 94.2044 14.668 94.2044 14.38C94.2044 14.236 94.1684 14.116 94.0964 14.02C93.9524 13.876 93.6644 13.804 93.2324 13.804C92.7044 13.804 92.0804 13.924 91.3604 14.164C90.6644 14.404 89.9804 14.728 89.3084 15.136C88.6604 15.52 88.1204 15.952 87.6884 16.432C87.2564 16.888 87.0404 17.344 87.0404 17.8C87.0404 18.208 87.1724 18.604 87.4364 18.988C87.7244 19.348 88.0364 19.696 88.3724 20.032C89.0444 19.744 89.8364 19.504 90.7484 19.312C91.6844 19.096 92.6444 18.928 93.6284 18.808C94.6364 18.688 95.6084 18.604 96.5444 18.556C97.4804 18.508 98.2844 18.484 98.9564 18.484C99.3644 18.484 99.7124 18.484 100 18.484C100.288 18.484 100.516 18.508 100.684 18.556C100.9 18.604 101.008 18.7 101.008 18.844C101.008 18.94 100.96 19.024 100.864 19.096C100.792 19.168 100.708 19.204 100.612 19.204C100.444 19.204 100.264 19.192 100.072 19.168C99.9044 19.144 99.7004 19.132 99.4604 19.132C98.7164 19.132 97.8284 19.192 96.7964 19.312C95.7644 19.408 94.7204 19.54 93.6644 19.708C92.6324 19.852 91.6964 20.02 90.8564 20.212C90.0164 20.404 89.4164 20.596 89.0564 20.788C89.4644 21.34 89.6684 21.928 89.6684 22.552C89.6684 23.656 89.1284 24.52 88.0484 25.144C87.3284 25.6 86.5124 25.936 85.6004 26.152C84.7124 26.392 83.9204 26.512 83.2244 26.512C83.0564 26.512 82.9004 26.5 82.7564 26.476C82.6364 26.476 82.5164 26.464 82.3964 26.44ZM83.1884 25.396C83.4524 25.396 83.9324 25.288 84.6284 25.072C85.3484 24.88 86.0084 24.592 86.6084 24.208C87.4244 23.704 87.8324 23.128 87.8324 22.48C87.8324 22.072 87.6404 21.64 87.2564 21.184C86.8004 21.352 86.2364 21.676 85.5644 22.156C84.9164 22.612 84.3404 23.092 83.8364 23.596C83.2844 24.148 82.9364 24.604 82.7924 24.964C82.7924 24.988 82.7804 25.012 82.7564 25.036C82.7564 25.06 82.7564 25.096 82.7564 25.144C82.7564 25.288 82.9004 25.372 83.1884 25.396Z" fill="#333333"/>
</svg>
