<svg width="42" height="35" viewBox="0 0 42 35" fill="none" xmlns="http://www.w3.org/2000/svg">
<path d="M19.4211 35C19.1691 35.009 18.9208 34.9303 18.711 34.7749C18.5013 34.6194 18.3405 34.395 18.2511 34.133L15.3171 25.577H2.421C2.10292 25.577 1.78796 25.5074 1.49411 25.3721C1.20027 25.2368 0.933288 25.0385 0.708454 24.7885C0.48362 24.5385 0.305335 24.2417 0.183774 23.9151C0.0622137 23.5885 -0.000235823 23.2385 6.69174e-07 22.885V2.692C-0.000119585 2.33777 0.0627081 1.98703 0.184873 1.65984C0.307038 1.33265 0.48615 1.03546 0.711915 0.785355C0.937679 0.535248 1.20565 0.337114 1.50049 0.202347C1.79532 0.0675792 2.11121 -0.00116969 2.43001 1.50554e-05H19.3887C19.6186 4.3819e-06 19.8438 0.0726692 20.0379 0.209549C20.232 0.346429 20.387 0.541881 20.4849 0.773026L24.1479 9.42303H38.7747C39.0928 9.42303 39.4077 9.49267 39.7016 9.62798C39.9954 9.76329 40.2624 9.9616 40.4873 10.2116C40.7121 10.4616 40.8904 10.7584 41.0119 11.085C41.1335 11.4116 41.1959 11.7616 41.1957 12.115V32.307C41.1958 32.6613 41.133 33.012 41.0108 33.3392C40.8887 33.6664 40.7096 33.9636 40.4838 34.2137C40.258 34.4638 39.9901 34.6619 39.6952 34.7967C39.4004 34.9315 39.0845 35.0002 38.7657 34.999L19.4211 35ZM18.6156 2.692H2.43001C2.43001 2.692 2.43001 9.42302 2.43001 22.884H27.1746L18.6156 2.692ZM25.2846 12.115L30.1734 23.657C30.2854 23.9216 30.3168 24.2194 30.2629 24.5056C30.2089 24.7917 30.0727 25.0506 29.8746 25.243L22.6089 32.307H38.7657C38.7657 32.307 38.7657 25.576 38.7657 12.115H25.2846ZM19.8972 31.366L25.8525 25.576H17.91L19.8972 31.366Z" fill="white"/>
</svg>
